<?xml version="1.0" encoding="UTF-8" standalone="no"?>
<!DOCTYPE svg PUBLIC "-//W3C//DTD SVG 1.1//EN" "http://www.w3.org/Graphics/SVG/1.1/DTD/svg11.dtd">
<!-- Created with matplotlib (http://matplotlib.org/) -->
<svg height="432pt" version="1.1" viewBox="0 0 576 432" width="576pt" xmlns="http://www.w3.org/2000/svg" xmlns:xlink="http://www.w3.org/1999/xlink">
 <defs>
  <style type="text/css">
*{stroke-linecap:butt;stroke-linejoin:round;stroke-miterlimit:100000;}
  </style>
 </defs>
 <g id="figure_1">
  <g id="patch_1">
   <path d="M 0 432  L 576 432  L 576 0  L 0 0  z " style="fill:#ffffff;"/>
  </g>
  <g id="axes_1">
   <g id="patch_2">
    <path d="M 72 388.8  L 518.4 388.8  L 518.4 43.2  L 72 43.2  z " style="fill:#ffffff;"/>
   </g>
   <g id="matplotlib.axis_1">
    <g id="xtick_1">
     <g id="line2d_1">
      <defs>
       <path d="M 0 0  L 0 0  " id="ma083601b2b" style="stroke:#262626;stroke-width:0.5;"/>
      </defs>
      <g>
       <use style="fill:#262626;stroke:#262626;stroke-width:0.5;" x="518.4" xlink:href="#ma083601b2b" y="388.8"/>
      </g>
     </g>
     <g id="line2d_2">
      <g>
       <use style="fill:#262626;stroke:#262626;stroke-width:0.5;" x="518.4" xlink:href="#ma083601b2b" y="43.2"/>
      </g>
     </g>
     <g id="text_1">
      <!-- 700 -->
      <defs>
       <path d="M 31.78125 66.40625  Q 24.171875 66.40625 20.328125 58.90625  Q 16.5 51.421875 16.5 36.375  Q 16.5 21.390625 20.328125 13.890625  Q 24.171875 6.390625 31.78125 6.390625  Q 39.453125 6.390625 43.28125 13.890625  Q 47.125 21.390625 47.125 36.375  Q 47.125 51.421875 43.28125 58.90625  Q 39.453125 66.40625 31.78125 66.40625  M 31.78125 74.21875  Q 44.046875 74.21875 50.515625 64.515625  Q 56.984375 54.828125 56.984375 36.375  Q 56.984375 17.96875 50.515625 8.265625  Q 44.046875 -1.421875 31.78125 -1.421875  Q 19.53125 -1.421875 13.0625 8.265625  Q 6.59375 17.96875 6.59375 36.375  Q 6.59375 54.828125 13.0625 64.515625  Q 19.53125 74.21875 31.78125 74.21875  " id="DejaVuSans-30"/>
       <path d="M 8.203125 72.90625  L 55.078125 72.90625  L 55.078125 68.703125  L 28.609375 0  L 18.3125 0  L 43.21875 64.59375  L 8.203125 64.59375  z " id="DejaVuSans-37"/>
      </defs>
      <g style="fill:#262626;" transform="translate(506.9475 401.918125)scale(0.12 -0.12)">
       <use xlink:href="#DejaVuSans-37"/>
       <use x="63.623046875" xlink:href="#DejaVuSans-30"/>
       <use x="127.24609375" xlink:href="#DejaVuSans-30"/>
      </g>
     </g>
    </g>
    <g id="xtick_2">
     <g id="line2d_3">
      <g>
       <use style="fill:#262626;stroke:#262626;stroke-width:0.5;" x="477.440104021" xlink:href="#ma083601b2b" y="388.8"/>
      </g>
     </g>
     <g id="line2d_4">
      <g>
       <use style="fill:#262626;stroke:#262626;stroke-width:0.5;" x="477.440104021" xlink:href="#ma083601b2b" y="43.2"/>
      </g>
     </g>
     <g id="text_2">
      <!-- 800 -->
      <defs>
       <path d="M 31.78125 34.625  Q 24.75 34.625 20.71875 30.859375  Q 16.703125 27.09375 16.703125 20.515625  Q 16.703125 13.921875 20.71875 10.15625  Q 24.75 6.390625 31.78125 6.390625  Q 38.8125 6.390625 42.859375 10.171875  Q 46.921875 13.96875 46.921875 20.515625  Q 46.921875 27.09375 42.890625 30.859375  Q 38.875 34.625 31.78125 34.625  M 21.921875 38.8125  Q 15.578125 40.375 12.03125 44.71875  Q 8.5 49.078125 8.5 55.328125  Q 8.5 64.0625 14.71875 69.140625  Q 20.953125 74.21875 31.78125 74.21875  Q 42.671875 74.21875 48.875 69.140625  Q 55.078125 64.0625 55.078125 55.328125  Q 55.078125 49.078125 51.53125 44.71875  Q 48 40.375 41.703125 38.8125  Q 48.828125 37.15625 52.796875 32.3125  Q 56.78125 27.484375 56.78125 20.515625  Q 56.78125 9.90625 50.3125 4.234375  Q 43.84375 -1.421875 31.78125 -1.421875  Q 19.734375 -1.421875 13.25 4.234375  Q 6.78125 9.90625 6.78125 20.515625  Q 6.78125 27.484375 10.78125 32.3125  Q 14.796875 37.15625 21.921875 38.8125  M 18.3125 54.390625  Q 18.3125 48.734375 21.84375 45.5625  Q 25.390625 42.390625 31.78125 42.390625  Q 38.140625 42.390625 41.71875 45.5625  Q 45.3125 48.734375 45.3125 54.390625  Q 45.3125 60.0625 41.71875 63.234375  Q 38.140625 66.40625 31.78125 66.40625  Q 25.390625 66.40625 21.84375 63.234375  Q 18.3125 60.0625 18.3125 54.390625  " id="DejaVuSans-38"/>
      </defs>
      <g style="fill:#262626;" transform="translate(465.987604021 401.918125)scale(0.12 -0.12)">
       <use xlink:href="#DejaVuSans-38"/>
       <use x="63.623046875" xlink:href="#DejaVuSans-30"/>
       <use x="127.24609375" xlink:href="#DejaVuSans-30"/>
      </g>
     </g>
    </g>
    <g id="xtick_3">
     <g id="line2d_5">
      <g>
       <use style="fill:#262626;stroke:#262626;stroke-width:0.5;" x="441.310915267" xlink:href="#ma083601b2b" y="388.8"/>
      </g>
     </g>
     <g id="line2d_6">
      <g>
       <use style="fill:#262626;stroke:#262626;stroke-width:0.5;" x="441.310915267" xlink:href="#ma083601b2b" y="43.2"/>
      </g>
     </g>
     <g id="text_3">
      <!-- 900 -->
      <defs>
       <path d="M 10.984375 1.515625  L 10.984375 10.5  Q 14.703125 8.734375 18.5 7.8125  Q 22.3125 6.890625 25.984375 6.890625  Q 35.75 6.890625 40.890625 13.453125  Q 46.046875 20.015625 46.78125 33.40625  Q 43.953125 29.203125 39.59375 26.953125  Q 35.25 24.703125 29.984375 24.703125  Q 19.046875 24.703125 12.671875 31.3125  Q 6.296875 37.9375 6.296875 49.421875  Q 6.296875 60.640625 12.9375 67.421875  Q 19.578125 74.21875 30.609375 74.21875  Q 43.265625 74.21875 49.921875 64.515625  Q 56.59375 54.828125 56.59375 36.375  Q 56.59375 19.140625 48.40625 8.859375  Q 40.234375 -1.421875 26.421875 -1.421875  Q 22.703125 -1.421875 18.890625 -0.6875  Q 15.09375 0.046875 10.984375 1.515625  M 30.609375 32.421875  Q 37.25 32.421875 41.125 36.953125  Q 45.015625 41.5 45.015625 49.421875  Q 45.015625 57.28125 41.125 61.84375  Q 37.25 66.40625 30.609375 66.40625  Q 23.96875 66.40625 20.09375 61.84375  Q 16.21875 57.28125 16.21875 49.421875  Q 16.21875 41.5 20.09375 36.953125  Q 23.96875 32.421875 30.609375 32.421875  " id="DejaVuSans-39"/>
      </defs>
      <g style="fill:#262626;" transform="translate(429.858415267 401.918125)scale(0.12 -0.12)">
       <use xlink:href="#DejaVuSans-39"/>
       <use x="63.623046875" xlink:href="#DejaVuSans-30"/>
       <use x="127.24609375" xlink:href="#DejaVuSans-30"/>
      </g>
     </g>
    </g>
    <g id="xtick_4">
     <g id="line2d_7">
      <g>
       <use style="fill:#262626;stroke:#262626;stroke-width:0.5;" x="408.992254638" xlink:href="#ma083601b2b" y="388.8"/>
      </g>
     </g>
     <g id="line2d_8">
      <g>
       <use style="fill:#262626;stroke:#262626;stroke-width:0.5;" x="408.992254638" xlink:href="#ma083601b2b" y="43.2"/>
      </g>
     </g>
     <g id="text_4">
      <!-- 1000 -->
      <defs>
       <path d="M 12.40625 8.296875  L 28.515625 8.296875  L 28.515625 63.921875  L 10.984375 60.40625  L 10.984375 69.390625  L 28.421875 72.90625  L 38.28125 72.90625  L 38.28125 8.296875  L 54.390625 8.296875  L 54.390625 0  L 12.40625 0  z " id="DejaVuSans-31"/>
      </defs>
      <g style="fill:#262626;" transform="translate(393.722254638 401.918125)scale(0.12 -0.12)">
       <use xlink:href="#DejaVuSans-31"/>
       <use x="63.623046875" xlink:href="#DejaVuSans-30"/>
       <use x="127.24609375" xlink:href="#DejaVuSans-30"/>
       <use x="190.869140625" xlink:href="#DejaVuSans-30"/>
      </g>
     </g>
    </g>
    <g id="xtick_5">
     <g id="line2d_9">
      <g>
       <use style="fill:#262626;stroke:#262626;stroke-width:0.5;" x="284.618440174" xlink:href="#ma083601b2b" y="388.8"/>
      </g>
     </g>
     <g id="line2d_10">
      <g>
       <use style="fill:#262626;stroke:#262626;stroke-width:0.5;" x="284.618440174" xlink:href="#ma083601b2b" y="43.2"/>
      </g>
     </g>
     <g id="text_5">
      <!-- 1500 -->
      <defs>
       <path d="M 10.796875 72.90625  L 49.515625 72.90625  L 49.515625 64.59375  L 19.828125 64.59375  L 19.828125 46.734375  Q 21.96875 47.46875 24.109375 47.828125  Q 26.265625 48.1875 28.421875 48.1875  Q 40.625 48.1875 47.75 41.5  Q 54.890625 34.8125 54.890625 23.390625  Q 54.890625 11.625 47.5625 5.09375  Q 40.234375 -1.421875 26.90625 -1.421875  Q 22.3125 -1.421875 17.546875 -0.640625  Q 12.796875 0.140625 7.71875 1.703125  L 7.71875 11.625  Q 12.109375 9.234375 16.796875 8.0625  Q 21.484375 6.890625 26.703125 6.890625  Q 35.15625 6.890625 40.078125 11.328125  Q 45.015625 15.765625 45.015625 23.390625  Q 45.015625 31 40.078125 35.4375  Q 35.15625 39.890625 26.703125 39.890625  Q 22.75 39.890625 18.8125 39.015625  Q 14.890625 38.140625 10.796875 36.28125  z " id="DejaVuSans-35"/>
      </defs>
      <g style="fill:#262626;" transform="translate(269.348440174 401.918125)scale(0.12 -0.12)">
       <use xlink:href="#DejaVuSans-31"/>
       <use x="63.623046875" xlink:href="#DejaVuSans-35"/>
       <use x="127.24609375" xlink:href="#DejaVuSans-30"/>
       <use x="190.869140625" xlink:href="#DejaVuSans-30"/>
      </g>
     </g>
    </g>
    <g id="xtick_6">
     <g id="line2d_11">
      <g>
       <use style="fill:#262626;stroke:#262626;stroke-width:0.5;" x="196.373814464" xlink:href="#ma083601b2b" y="388.8"/>
      </g>
     </g>
     <g id="line2d_12">
      <g>
       <use style="fill:#262626;stroke:#262626;stroke-width:0.5;" x="196.373814464" xlink:href="#ma083601b2b" y="43.2"/>
      </g>
     </g>
     <g id="text_6">
      <!-- 2000 -->
      <defs>
       <path d="M 19.1875 8.296875  L 53.609375 8.296875  L 53.609375 0  L 7.328125 0  L 7.328125 8.296875  Q 12.9375 14.109375 22.625 23.890625  Q 32.328125 33.6875 34.8125 36.53125  Q 39.546875 41.84375 41.421875 45.53125  Q 43.3125 49.21875 43.3125 52.78125  Q 43.3125 58.59375 39.234375 62.25  Q 35.15625 65.921875 28.609375 65.921875  Q 23.96875 65.921875 18.8125 64.3125  Q 13.671875 62.703125 7.8125 59.421875  L 7.8125 69.390625  Q 13.765625 71.78125 18.9375 73  Q 24.125 74.21875 28.421875 74.21875  Q 39.75 74.21875 46.484375 68.546875  Q 53.21875 62.890625 53.21875 53.421875  Q 53.21875 48.921875 51.53125 44.890625  Q 49.859375 40.875 45.40625 35.40625  Q 44.1875 33.984375 37.640625 27.21875  Q 31.109375 20.453125 19.1875 8.296875  " id="DejaVuSans-32"/>
      </defs>
      <g style="fill:#262626;" transform="translate(181.103814464 401.918125)scale(0.12 -0.12)">
       <use xlink:href="#DejaVuSans-32"/>
       <use x="63.623046875" xlink:href="#DejaVuSans-30"/>
       <use x="127.24609375" xlink:href="#DejaVuSans-30"/>
       <use x="190.869140625" xlink:href="#DejaVuSans-30"/>
      </g>
     </g>
    </g>
    <g id="xtick_7">
     <g id="line2d_13">
      <g>
       <use style="fill:#262626;stroke:#262626;stroke-width:0.5;" x="127.92596508" xlink:href="#ma083601b2b" y="388.8"/>
      </g>
     </g>
     <g id="line2d_14">
      <g>
       <use style="fill:#262626;stroke:#262626;stroke-width:0.5;" x="127.92596508" xlink:href="#ma083601b2b" y="43.2"/>
      </g>
     </g>
     <g id="text_7">
      <!-- 2500 -->
      <g style="fill:#262626;" transform="translate(112.65596508 401.918125)scale(0.12 -0.12)">
       <use xlink:href="#DejaVuSans-32"/>
       <use x="63.623046875" xlink:href="#DejaVuSans-35"/>
       <use x="127.24609375" xlink:href="#DejaVuSans-30"/>
       <use x="190.869140625" xlink:href="#DejaVuSans-30"/>
      </g>
     </g>
    </g>
    <g id="xtick_8">
     <g id="line2d_15">
      <g>
       <use style="fill:#262626;stroke:#262626;stroke-width:0.5;" x="72.0" xlink:href="#ma083601b2b" y="388.8"/>
      </g>
     </g>
     <g id="line2d_16">
      <g>
       <use style="fill:#262626;stroke:#262626;stroke-width:0.5;" x="72.0" xlink:href="#ma083601b2b" y="43.2"/>
      </g>
     </g>
     <g id="text_8">
      <!-- 3000 -->
      <defs>
       <path d="M 40.578125 39.3125  Q 47.65625 37.796875 51.625 33  Q 55.609375 28.21875 55.609375 21.1875  Q 55.609375 10.40625 48.1875 4.484375  Q 40.765625 -1.421875 27.09375 -1.421875  Q 22.515625 -1.421875 17.65625 -0.515625  Q 12.796875 0.390625 7.625 2.203125  L 7.625 11.71875  Q 11.71875 9.328125 16.59375 8.109375  Q 21.484375 6.890625 26.8125 6.890625  Q 36.078125 6.890625 40.9375 10.546875  Q 45.796875 14.203125 45.796875 21.1875  Q 45.796875 27.640625 41.28125 31.265625  Q 36.765625 34.90625 28.71875 34.90625  L 20.21875 34.90625  L 20.21875 43.015625  L 29.109375 43.015625  Q 36.375 43.015625 40.234375 45.921875  Q 44.09375 48.828125 44.09375 54.296875  Q 44.09375 59.90625 40.109375 62.90625  Q 36.140625 65.921875 28.71875 65.921875  Q 24.65625 65.921875 20.015625 65.03125  Q 15.375 64.15625 9.8125 62.3125  L 9.8125 71.09375  Q 15.4375 72.65625 20.34375 73.4375  Q 25.25 74.21875 29.59375 74.21875  Q 40.828125 74.21875 47.359375 69.109375  Q 53.90625 64.015625 53.90625 55.328125  Q 53.90625 49.265625 50.4375 45.09375  Q 46.96875 40.921875 40.578125 39.3125  " id="DejaVuSans-33"/>
      </defs>
      <g style="fill:#262626;" transform="translate(56.73 401.918125)scale(0.12 -0.12)">
       <use xlink:href="#DejaVuSans-33"/>
       <use x="63.623046875" xlink:href="#DejaVuSans-30"/>
       <use x="127.24609375" xlink:href="#DejaVuSans-30"/>
       <use x="190.869140625" xlink:href="#DejaVuSans-30"/>
      </g>
     </g>
    </g>
    <g id="text_9">
     <!-- F2 -->
     <defs>
      <path d="M 9.8125 72.90625  L 51.703125 72.90625  L 51.703125 64.59375  L 19.671875 64.59375  L 19.671875 43.109375  L 48.578125 43.109375  L 48.578125 34.8125  L 19.671875 34.8125  L 19.671875 0  L 9.8125 0  z " id="DejaVuSans-46"/>
     </defs>
     <g style="fill:#262626;" transform="translate(287.9315625 418.531875)scale(0.12 -0.12)">
      <use xlink:href="#DejaVuSans-46"/>
      <use x="57.51953125" xlink:href="#DejaVuSans-32"/>
     </g>
    </g>
   </g>
   <g id="matplotlib.axis_2">
    <g id="ytick_1">
     <g id="line2d_17">
      <g>
       <use style="fill:#262626;stroke:#262626;stroke-width:0.5;" x="72.0" xlink:href="#ma083601b2b" y="43.2"/>
      </g>
     </g>
     <g id="line2d_18">
      <g>
       <use style="fill:#262626;stroke:#262626;stroke-width:0.5;" x="518.4" xlink:href="#ma083601b2b" y="43.2"/>
      </g>
     </g>
     <g id="text_10">
      <!-- 250 -->
      <g style="fill:#262626;" transform="translate(45.095 46.51125)scale(0.12 -0.12)">
       <use xlink:href="#DejaVuSans-32"/>
       <use x="63.623046875" xlink:href="#DejaVuSans-35"/>
       <use x="127.24609375" xlink:href="#DejaVuSans-30"/>
      </g>
     </g>
    </g>
    <g id="ytick_2">
     <g id="line2d_19">
      <g>
       <use style="fill:#262626;stroke:#262626;stroke-width:0.5;" x="72.0" xlink:href="#ma083601b2b" y="88.6523453281"/>
      </g>
     </g>
     <g id="line2d_20">
      <g>
       <use style="fill:#262626;stroke:#262626;stroke-width:0.5;" x="518.4" xlink:href="#ma083601b2b" y="88.6523453281"/>
      </g>
     </g>
     <g id="text_11">
      <!-- 300 -->
      <g style="fill:#262626;" transform="translate(45.095 91.9635953281)scale(0.12 -0.12)">
       <use xlink:href="#DejaVuSans-33"/>
       <use x="63.623046875" xlink:href="#DejaVuSans-30"/>
       <use x="127.24609375" xlink:href="#DejaVuSans-30"/>
      </g>
     </g>
    </g>
    <g id="ytick_3">
     <g id="line2d_21">
      <g>
       <use style="fill:#262626;stroke:#262626;stroke-width:0.5;" x="72.0" xlink:href="#ma083601b2b" y="160.370825203"/>
      </g>
     </g>
     <g id="line2d_22">
      <g>
       <use style="fill:#262626;stroke:#262626;stroke-width:0.5;" x="518.4" xlink:href="#ma083601b2b" y="160.370825203"/>
      </g>
     </g>
     <g id="text_12">
      <!-- 400 -->
      <defs>
       <path d="M 37.796875 64.3125  L 12.890625 25.390625  L 37.796875 25.390625  z M 35.203125 72.90625  L 47.609375 72.90625  L 47.609375 25.390625  L 58.015625 25.390625  L 58.015625 17.1875  L 47.609375 17.1875  L 47.609375 0  L 37.796875 0  L 37.796875 17.1875  L 4.890625 17.1875  L 4.890625 26.703125  z " id="DejaVuSans-34"/>
      </defs>
      <g style="fill:#262626;" transform="translate(45.095 163.682075203)scale(0.12 -0.12)">
       <use xlink:href="#DejaVuSans-34"/>
       <use x="63.623046875" xlink:href="#DejaVuSans-30"/>
       <use x="127.24609375" xlink:href="#DejaVuSans-30"/>
      </g>
     </g>
    </g>
    <g id="ytick_4">
     <g id="line2d_23">
      <g>
       <use style="fill:#262626;stroke:#262626;stroke-width:0.5;" x="72.0" xlink:href="#ma083601b2b" y="216.0"/>
      </g>
     </g>
     <g id="line2d_24">
      <g>
       <use style="fill:#262626;stroke:#262626;stroke-width:0.5;" x="518.4" xlink:href="#ma083601b2b" y="216.0"/>
      </g>
     </g>
     <g id="text_13">
      <!-- 500 -->
      <g style="fill:#262626;" transform="translate(45.095 219.31125)scale(0.12 -0.12)">
       <use xlink:href="#DejaVuSans-35"/>
       <use x="63.623046875" xlink:href="#DejaVuSans-30"/>
       <use x="127.24609375" xlink:href="#DejaVuSans-30"/>
      </g>
     </g>
    </g>
    <g id="ytick_5">
     <g id="line2d_25">
      <g>
       <use style="fill:#262626;stroke:#262626;stroke-width:0.5;" x="72.0" xlink:href="#ma083601b2b" y="261.452345328"/>
      </g>
     </g>
     <g id="line2d_26">
      <g>
       <use style="fill:#262626;stroke:#262626;stroke-width:0.5;" x="518.4" xlink:href="#ma083601b2b" y="261.452345328"/>
      </g>
     </g>
     <g id="text_14">
      <!-- 600 -->
      <defs>
       <path d="M 33.015625 40.375  Q 26.375 40.375 22.484375 35.828125  Q 18.609375 31.296875 18.609375 23.390625  Q 18.609375 15.53125 22.484375 10.953125  Q 26.375 6.390625 33.015625 6.390625  Q 39.65625 6.390625 43.53125 10.953125  Q 47.40625 15.53125 47.40625 23.390625  Q 47.40625 31.296875 43.53125 35.828125  Q 39.65625 40.375 33.015625 40.375  M 52.59375 71.296875  L 52.59375 62.3125  Q 48.875 64.0625 45.09375 64.984375  Q 41.3125 65.921875 37.59375 65.921875  Q 27.828125 65.921875 22.671875 59.328125  Q 17.53125 52.734375 16.796875 39.40625  Q 19.671875 43.65625 24.015625 45.921875  Q 28.375 48.1875 33.59375 48.1875  Q 44.578125 48.1875 50.953125 41.515625  Q 57.328125 34.859375 57.328125 23.390625  Q 57.328125 12.15625 50.6875 5.359375  Q 44.046875 -1.421875 33.015625 -1.421875  Q 20.359375 -1.421875 13.671875 8.265625  Q 6.984375 17.96875 6.984375 36.375  Q 6.984375 53.65625 15.1875 63.9375  Q 23.390625 74.21875 37.203125 74.21875  Q 40.921875 74.21875 44.703125 73.484375  Q 48.484375 72.75 52.59375 71.296875  " id="DejaVuSans-36"/>
      </defs>
      <g style="fill:#262626;" transform="translate(45.095 264.763595328)scale(0.12 -0.12)">
       <use xlink:href="#DejaVuSans-36"/>
       <use x="63.623046875" xlink:href="#DejaVuSans-30"/>
       <use x="127.24609375" xlink:href="#DejaVuSans-30"/>
      </g>
     </g>
    </g>
    <g id="ytick_6">
     <g id="line2d_27">
      <g>
       <use style="fill:#262626;stroke:#262626;stroke-width:0.5;" x="72.0" xlink:href="#ma083601b2b" y="299.881755735"/>
      </g>
     </g>
     <g id="line2d_28">
      <g>
       <use style="fill:#262626;stroke:#262626;stroke-width:0.5;" x="518.4" xlink:href="#ma083601b2b" y="299.881755735"/>
      </g>
     </g>
     <g id="text_15">
      <!-- 700 -->
      <g style="fill:#262626;" transform="translate(45.095 303.193005735)scale(0.12 -0.12)">
       <use xlink:href="#DejaVuSans-37"/>
       <use x="63.623046875" xlink:href="#DejaVuSans-30"/>
       <use x="127.24609375" xlink:href="#DejaVuSans-30"/>
      </g>
     </g>
    </g>
    <g id="ytick_7">
     <g id="line2d_29">
      <g>
       <use style="fill:#262626;stroke:#262626;stroke-width:0.5;" x="72.0" xlink:href="#ma083601b2b" y="333.170825203"/>
      </g>
     </g>
     <g id="line2d_30">
      <g>
       <use style="fill:#262626;stroke:#262626;stroke-width:0.5;" x="518.4" xlink:href="#ma083601b2b" y="333.170825203"/>
      </g>
     </g>
     <g id="text_16">
      <!-- 800 -->
      <g style="fill:#262626;" transform="translate(45.095 336.482075203)scale(0.12 -0.12)">
       <use xlink:href="#DejaVuSans-38"/>
       <use x="63.623046875" xlink:href="#DejaVuSans-30"/>
       <use x="127.24609375" xlink:href="#DejaVuSans-30"/>
      </g>
     </g>
    </g>
    <g id="ytick_8">
     <g id="line2d_31">
      <g>
       <use style="fill:#262626;stroke:#262626;stroke-width:0.5;" x="72.0" xlink:href="#ma083601b2b" y="362.533865453"/>
      </g>
     </g>
     <g id="line2d_32">
      <g>
       <use style="fill:#262626;stroke:#262626;stroke-width:0.5;" x="518.4" xlink:href="#ma083601b2b" y="362.533865453"/>
      </g>
     </g>
     <g id="text_17">
      <!-- 900 -->
      <g style="fill:#262626;" transform="translate(45.095 365.845115453)scale(0.12 -0.12)">
       <use xlink:href="#DejaVuSans-39"/>
       <use x="63.623046875" xlink:href="#DejaVuSans-30"/>
       <use x="127.24609375" xlink:href="#DejaVuSans-30"/>
      </g>
     </g>
    </g>
    <g id="ytick_9">
     <g id="line2d_33">
      <g>
       <use style="fill:#262626;stroke:#262626;stroke-width:0.5;" x="72.0" xlink:href="#ma083601b2b" y="388.8"/>
      </g>
     </g>
     <g id="line2d_34">
      <g>
       <use style="fill:#262626;stroke:#262626;stroke-width:0.5;" x="518.4" xlink:href="#ma083601b2b" y="388.8"/>
      </g>
     </g>
     <g id="text_18">
      <!-- 1000 -->
      <g style="fill:#262626;" transform="translate(37.46 392.11125)scale(0.12 -0.12)">
       <use xlink:href="#DejaVuSans-31"/>
       <use x="63.623046875" xlink:href="#DejaVuSans-30"/>
       <use x="127.24609375" xlink:href="#DejaVuSans-30"/>
       <use x="190.869140625" xlink:href="#DejaVuSans-30"/>
      </g>
     </g>
    </g>
    <g id="text_19">
     <!-- F1 -->
     <g style="fill:#262626;" transform="translate(29.964375 223.2684375)rotate(-90.0)scale(0.12 -0.12)">
      <use xlink:href="#DejaVuSans-46"/>
      <use x="57.51953125" xlink:href="#DejaVuSans-31"/>
     </g>
    </g>
   </g>
   <g id="PathCollection_1">
    <defs>
     <path d="M 0 2.236068  C 0.593012 2.236068 1.161816 2.000462 1.581139 1.581139  C 2.000462 1.161816 2.236068 0.593012 2.236068 0  C 2.236068 -0.593012 2.000462 -1.161816 1.581139 -1.581139  C 1.161816 -2.000462 0.593012 -2.236068 0 -2.236068  C -0.593012 -2.236068 -1.161816 -2.000462 -1.581139 -1.581139  C -2.000462 -1.161816 -2.236068 -0.593012 -2.236068 0  C -2.236068 0.593012 -2.000462 1.161816 -1.581139 1.581139  C -1.161816 2.000462 -0.593012 2.236068 0 2.236068  z " id="m164077829a" style="stroke:#000000;stroke-opacity:0.0;"/>
    </defs>
    <g clip-path="url(#p2a0593d0bf)">
     <use style="fill:#0000ff;fill-opacity:0.0;stroke:#000000;stroke-opacity:0.0;" x="203.427576638" xlink:href="#m164077829a" y="118.182725563"/>
     <use style="fill:#0000ff;fill-opacity:0.0;stroke:#000000;stroke-opacity:0.0;" x="373.373685381" xlink:href="#m164077829a" y="72.189703856"/>
     <use style="fill:#0000ff;fill-opacity:0.0;stroke:#000000;stroke-opacity:0.0;" x="221.807825147" xlink:href="#m164077829a" y="109.312162903"/>
     <use style="fill:#0000ff;fill-opacity:0.0;stroke:#000000;stroke-opacity:0.0;" x="203.804782509" xlink:href="#m164077829a" y="95.0874850002"/>
     <use style="fill:#0000ff;fill-opacity:0.0;stroke:#000000;stroke-opacity:0.0;" x="184.945897826" xlink:href="#m164077829a" y="264.099799542"/>
     <use style="fill:#0000ff;fill-opacity:0.0;stroke:#000000;stroke-opacity:0.0;" x="198.21195717" xlink:href="#m164077829a" y="116.901897017"/>
     <use style="fill:#0000ff;fill-opacity:0.0;stroke:#000000;stroke-opacity:0.0;" x="389.704441998" xlink:href="#m164077829a" y="142.326719861"/>
     <use style="fill:#0000ff;fill-opacity:0.0;stroke:#000000;stroke-opacity:0.0;" x="402.315290804" xlink:href="#m164077829a" y="276.62594859"/>
     <use style="fill:#0000ff;fill-opacity:0.0;stroke:#000000;stroke-opacity:0.0;" x="198.431403245" xlink:href="#m164077829a" y="241.294414371"/>
     <use style="fill:#0000ff;fill-opacity:0.0;stroke:#000000;stroke-opacity:0.0;" x="332.056144668" xlink:href="#m164077829a" y="199.725690413"/>
     <use style="fill:#0000ff;fill-opacity:0.0;stroke:#000000;stroke-opacity:0.0;" x="222.418145918" xlink:href="#m164077829a" y="56.5112606255"/>
     <use style="fill:#0000ff;fill-opacity:0.0;stroke:#000000;stroke-opacity:0.0;" x="128.215683222" xlink:href="#m164077829a" y="78.1535782008"/>
     <use style="fill:#0000ff;fill-opacity:0.0;stroke:#000000;stroke-opacity:0.0;" x="186.833162206" xlink:href="#m164077829a" y="206.562955506"/>
     <use style="fill:#0000ff;fill-opacity:0.0;stroke:#000000;stroke-opacity:0.0;" x="209.659039452" xlink:href="#m164077829a" y="112.536244276"/>
     <use style="fill:#0000ff;fill-opacity:0.0;stroke:#000000;stroke-opacity:0.0;" x="201.74592734" xlink:href="#m164077829a" y="163.548440517"/>
     <use style="fill:#0000ff;fill-opacity:0.0;stroke:#000000;stroke-opacity:0.0;" x="131.802633687" xlink:href="#m164077829a" y="71.0646301891"/>
     <use style="fill:#0000ff;fill-opacity:0.0;stroke:#000000;stroke-opacity:0.0;" x="130.372324114" xlink:href="#m164077829a" y="70.4989829573"/>
     <use style="fill:#0000ff;fill-opacity:0.0;stroke:#000000;stroke-opacity:0.0;" x="481.364411537" xlink:href="#m164077829a" y="204.81470725"/>
     <use style="fill:#0000ff;fill-opacity:0.0;stroke:#000000;stroke-opacity:0.0;" x="453.774704258" xlink:href="#m164077829a" y="240.676858692"/>
     <use style="fill:#0000ff;fill-opacity:0.0;stroke:#000000;stroke-opacity:0.0;" x="451.031132158" xlink:href="#m164077829a" y="240.679476858"/>
     <use style="fill:#0000ff;fill-opacity:0.0;stroke:#000000;stroke-opacity:0.0;" x="104.131329231" xlink:href="#m164077829a" y="76.0034585488"/>
     <use style="fill:#0000ff;fill-opacity:0.0;stroke:#000000;stroke-opacity:0.0;" x="321.306977234" xlink:href="#m164077829a" y="315.791237409"/>
     <use style="fill:#0000ff;fill-opacity:0.0;stroke:#000000;stroke-opacity:0.0;" x="253.609012387" xlink:href="#m164077829a" y="255.092677274"/>
     <use style="fill:#0000ff;fill-opacity:0.0;stroke:#000000;stroke-opacity:0.0;" x="226.415454506" xlink:href="#m164077829a" y="205.067549892"/>
     <use style="fill:#0000ff;fill-opacity:0.0;stroke:#000000;stroke-opacity:0.0;" x="364.36073483" xlink:href="#m164077829a" y="294.728973068"/>
     <use style="fill:#0000ff;fill-opacity:0.0;stroke:#000000;stroke-opacity:0.0;" x="234.36205974" xlink:href="#m164077829a" y="140.758387123"/>
     <use style="fill:#0000ff;fill-opacity:0.0;stroke:#000000;stroke-opacity:0.0;" x="331.333548659" xlink:href="#m164077829a" y="310.448389525"/>
     <use style="fill:#0000ff;fill-opacity:0.0;stroke:#000000;stroke-opacity:0.0;" x="230.883693452" xlink:href="#m164077829a" y="199.802812703"/>
     <use style="fill:#0000ff;fill-opacity:0.0;stroke:#000000;stroke-opacity:0.0;" x="162.596072117" xlink:href="#m164077829a" y="164.162505591"/>
     <use style="fill:#0000ff;fill-opacity:0.0;stroke:#000000;stroke-opacity:0.0;" x="198.30855375" xlink:href="#m164077829a" y="244.598333696"/>
     <use style="fill:#0000ff;fill-opacity:0.0;stroke:#000000;stroke-opacity:0.0;" x="333.957166626" xlink:href="#m164077829a" y="350.275878797"/>
     <use style="fill:#0000ff;fill-opacity:0.0;stroke:#000000;stroke-opacity:0.0;" x="206.780918048" xlink:href="#m164077829a" y="255.710619737"/>
     <use style="fill:#0000ff;fill-opacity:0.0;stroke:#000000;stroke-opacity:0.0;" x="313.70329219" xlink:href="#m164077829a" y="351.45505999"/>
     <use style="fill:#0000ff;fill-opacity:0.0;stroke:#000000;stroke-opacity:0.0;" x="259.755006642" xlink:href="#m164077829a" y="237.000135149"/>
     <use style="fill:#0000ff;fill-opacity:0.0;stroke:#000000;stroke-opacity:0.0;" x="181.812925769" xlink:href="#m164077829a" y="211.54002037"/>
     <use style="fill:#0000ff;fill-opacity:0.0;stroke:#000000;stroke-opacity:0.0;" x="168.53549715" xlink:href="#m164077829a" y="245.051606469"/>
     <use style="fill:#0000ff;fill-opacity:0.0;stroke:#000000;stroke-opacity:0.0;" x="202.104317075" xlink:href="#m164077829a" y="260.077668987"/>
     <use style="fill:#0000ff;fill-opacity:0.0;stroke:#000000;stroke-opacity:0.0;" x="382.112625983" xlink:href="#m164077829a" y="338.697658902"/>
     <use style="fill:#0000ff;fill-opacity:0.0;stroke:#000000;stroke-opacity:0.0;" x="260.221349453" xlink:href="#m164077829a" y="221.658999082"/>
     <use style="fill:#0000ff;fill-opacity:0.0;stroke:#000000;stroke-opacity:0.0;" x="449.687453484" xlink:href="#m164077829a" y="242.996983308"/>
     <use style="fill:#0000ff;fill-opacity:0.0;stroke:#000000;stroke-opacity:0.0;" x="431.210213942" xlink:href="#m164077829a" y="285.374429918"/>
     <use style="fill:#0000ff;fill-opacity:0.0;stroke:#000000;stroke-opacity:0.0;" x="341.188479967" xlink:href="#m164077829a" y="185.38590948"/>
     <use style="fill:#0000ff;fill-opacity:0.0;stroke:#000000;stroke-opacity:0.0;" x="405.706336845" xlink:href="#m164077829a" y="204.754840324"/>
     <use style="fill:#0000ff;fill-opacity:0.0;stroke:#000000;stroke-opacity:0.0;" x="334.555180561" xlink:href="#m164077829a" y="383.804366295"/>
     <use style="fill:#0000ff;fill-opacity:0.0;stroke:#000000;stroke-opacity:0.0;" x="375.345536037" xlink:href="#m164077829a" y="332.754288712"/>
     <use style="fill:#0000ff;fill-opacity:0.0;stroke:#000000;stroke-opacity:0.0;" x="491.159385889" xlink:href="#m164077829a" y="203.767243688"/>
     <use style="fill:#0000ff;fill-opacity:0.0;stroke:#000000;stroke-opacity:0.0;" x="186.418283776" xlink:href="#m164077829a" y="201.590917679"/>
     <use style="fill:#0000ff;fill-opacity:0.0;stroke:#000000;stroke-opacity:0.0;" x="341.048931512" xlink:href="#m164077829a" y="145.662315382"/>
     <use style="fill:#0000ff;fill-opacity:0.0;stroke:#000000;stroke-opacity:0.0;" x="267.440664093" xlink:href="#m164077829a" y="135.316114069"/>
     <use style="fill:#0000ff;fill-opacity:0.0;stroke:#000000;stroke-opacity:0.0;" x="353.38252125" xlink:href="#m164077829a" y="222.143052638"/>
     <use style="fill:#0000ff;fill-opacity:0.0;stroke:#000000;stroke-opacity:0.0;" x="240.785613486" xlink:href="#m164077829a" y="227.087306517"/>
     <use style="fill:#0000ff;fill-opacity:0.0;stroke:#000000;stroke-opacity:0.0;" x="282.159334292" xlink:href="#m164077829a" y="140.76442448"/>
     <use style="fill:#0000ff;fill-opacity:0.0;stroke:#000000;stroke-opacity:0.0;" x="310.882770277" xlink:href="#m164077829a" y="341.391563742"/>
     <use style="fill:#0000ff;fill-opacity:0.0;stroke:#000000;stroke-opacity:0.0;" x="343.979308857" xlink:href="#m164077829a" y="365.449585235"/>
     <use style="fill:#0000ff;fill-opacity:0.0;stroke:#000000;stroke-opacity:0.0;" x="346.200944574" xlink:href="#m164077829a" y="119.602918829"/>
     <use style="fill:#0000ff;fill-opacity:0.0;stroke:#000000;stroke-opacity:0.0;" x="194.929444437" xlink:href="#m164077829a" y="196.210684299"/>
     <use style="fill:#0000ff;fill-opacity:0.0;stroke:#000000;stroke-opacity:0.0;" x="266.67964489" xlink:href="#m164077829a" y="255.784152093"/>
     <use style="fill:#0000ff;fill-opacity:0.0;stroke:#000000;stroke-opacity:0.0;" x="360.66651846" xlink:href="#m164077829a" y="226.662440749"/>
     <use style="fill:#0000ff;fill-opacity:0.0;stroke:#000000;stroke-opacity:0.0;" x="314.005798564" xlink:href="#m164077829a" y="364.081746"/>
    </g>
   </g>
   <g id="patch_3">
    <path clip-path="url(#p2a0593d0bf)" d="M 204.653937 88.505804  C 195.446488 90.70577 188.129423 97.002719 184.314242 106.009822  C 180.49906 115.016925 180.497255 125.998791 184.309223 136.536792  C 188.12119 147.074793 195.435702 156.308548 204.64182 162.204429  C 213.847938 168.10031 224.194024 170.176945 233.401474 167.976979  C 242.608923 165.777013 249.925988 159.480064 253.741169 150.472961  C 257.55635 141.465858 257.558156 130.483992 253.746188 119.945991  C 249.93422 109.40799 242.619709 100.174235 233.413591 94.278354  C 224.207473 88.382473 213.861386 86.305838 204.653937 88.505804  L 204.653937 88.505804  z " style="fill:none;stroke:#0000ff;stroke-dasharray:6.000000,6.000000;stroke-dashoffset:0.0;stroke-linejoin:miter;"/>
   </g>
   <g id="patch_4">
    <path clip-path="url(#p2a0593d0bf)" d="M 385.293423 124.416157  C 372.320569 122.293094 358.629273 125.293834 347.234882 132.7575  C 335.840492 140.221165 327.67331 151.53838 324.532063 164.21666  C 321.390816 176.89494 323.531973 189.899159 330.483969 200.365289  C 337.435965 210.831419 348.631201 217.904947 361.604055 220.02801  C 374.576909 222.151073 388.268206 219.150333 399.662596 211.686667  C 411.056986 204.223002 419.224168 192.905787 422.365415 180.227507  C 425.506662 167.549227 423.365505 154.545008 416.413509 144.078878  C 409.461513 133.612748 398.266278 126.539221 385.293423 124.416157  L 385.293423 124.416157  z " style="fill:none;stroke:#b20000;stroke-dasharray:6.000000,6.000000;stroke-dashoffset:0.0;stroke-linejoin:miter;"/>
   </g>
   <g id="patch_5">
    <path clip-path="url(#p2a0593d0bf)" d="M 185.217991 239.015374  C 181.408921 239.61879 178.001626 241.224436 175.746522 243.47869  C 173.491419 245.732943 172.572626 248.451753 173.192498 251.036333  C 173.812369 253.620914 175.920296 255.860245 179.05203 257.26114  C 182.183765 258.662035 186.083615 259.110118 189.892685 258.506703  C 193.701755 257.903287 197.10905 256.297641 199.364154 254.043387  C 201.619257 251.789134 202.53805 249.070324 201.918178 246.485744  C 201.298307 243.901163 199.19038 241.661832 196.058646 240.260937  C 192.926911 238.860042 189.027061 238.411959 185.217991 239.015374  L 185.217991 239.015374  z " style="fill:none;stroke:#00d9ff;stroke-linejoin:miter;"/>
   </g>
   <g id="patch_6">
    <path clip-path="url(#p2a0593d0bf)" d="M 437.2522 243.433506  C 429.977682 250.643927 423.805655 258.096794 420.095437 264.150699  C 416.385219 270.204603 415.439732 274.365272 417.46721 275.716365  C 419.494688 277.067459 424.329595 275.498666 430.9071 271.355496  C 437.484605 267.212326 445.267683 260.83305 452.542202 253.622629  C 459.81672 246.412208 465.988747 238.959341 469.698965 232.905436  C 473.409183 226.851531 474.35467 222.690863 472.327192 221.339769  C 470.299714 219.988676 465.464807 221.557469 458.887302 225.700639  C 452.309797 229.843809 444.526719 236.223085 437.2522 243.433506  L 437.2522 243.433506  z " style="fill:none;stroke:#ff69b5;stroke-dasharray:6.000000,6.000000;stroke-dashoffset:0.0;stroke-linejoin:miter;"/>
   </g>
   <g id="patch_7">
    <path clip-path="url(#p2a0593d0bf)" d="M 149.86788 108.619245  C 142.046727 92.818883 133.48634 78.009624 126.072045 67.453035  C 118.657749 56.896446 112.99489 51.454426 110.330646 52.325516  C 107.666401 53.196607 108.218296 60.309688 111.864781 72.098185  C 115.511266 83.886683 121.954623 99.388118 129.775776 115.18848  C 137.596929 130.988842 146.157316 145.798101 153.571611 156.35469  C 160.985907 166.91128 166.648766 172.3533 169.31301 171.482209  C 171.977255 170.611118 171.42536 163.498037 167.778875 151.70954  C 164.13239 139.921043 157.689033 124.419607 149.86788 108.619245  L 149.86788 108.619245  z " style="fill:none;stroke:#0000ff;stroke-linejoin:miter;"/>
   </g>
   <g id="patch_8">
    <path clip-path="url(#p2a0593d0bf)" d="M 214.965682 166.693914  C 209.082902 166.947139 203.743321 171.840235 200.12292 180.295553  C 196.50252 188.750872 194.896889 200.078074 195.659649 211.782474  C 196.422409 223.486875 199.491285 234.612862 204.190392 242.710066  C 208.889498 250.80727 214.835175 255.214589 220.717955 254.961364  C 226.600735 254.708139 231.940315 249.815043 235.560716 241.359725  C 239.181116 232.904406 240.786747 221.577204 240.023987 209.872804  C 239.261227 198.168403 236.192351 187.042416 231.493245 178.945212  C 226.794138 170.848008 220.848462 166.440689 214.965682 166.693914  L 214.965682 166.693914  z " style="fill:none;stroke:#b20000;stroke-linejoin:miter;"/>
   </g>
   <g id="patch_9">
    <path clip-path="url(#p2a0593d0bf)" d="M 297.344335 247.572013  C 284.430368 238.48665 270.797511 230.942072 259.448243 226.599884  C 248.098975 222.257697 239.959913 221.47242 236.823591 224.417002  C 233.687269 227.361584 235.809754 233.795612 242.723593 242.302068  C 249.637432 250.808524 260.778141 260.692892 273.692108 269.778254  C 286.606074 278.863617 300.238931 286.408196 311.588199 290.750383  C 322.937467 295.092571 331.076529 295.877848 334.212851 292.933266  C 337.349173 289.988684 335.226688 283.554655 328.312849 275.0482  C 321.39901 266.541744 310.258301 256.657376 297.344335 247.572013  L 297.344335 247.572013  z " style="fill:none;stroke:#00d9ff;stroke-dasharray:6.000000,6.000000;stroke-dashoffset:0.0;stroke-linejoin:miter;"/>
   </g>
   <g id="patch_10">
    <path clip-path="url(#p2a0593d0bf)" d="M 331.970322 329.146801  C 324.942166 330.521833 318.811368 333.901665 314.928166 338.54193  C 311.044964 343.182195 309.726403 348.704035 311.262882 353.891329  C 312.79936 359.078623 317.065432 363.507851 323.121543 366.203528  C 329.177654 368.899204 336.529351 369.641239 343.557507 368.266207  C 350.585663 366.891176 356.71646 363.511343 360.599662 358.871078  C 364.482865 354.230813 365.801425 348.708973 364.264947 343.521679  C 362.728468 338.334385 358.462397 333.905157 352.406285 331.209481  C 346.350174 328.513804 338.998478 327.771769 331.970322 329.146801  L 331.970322 329.146801  z " style="fill:none;stroke:#ff69b5;stroke-linejoin:miter;"/>
   </g>
   <g id="patch_11">
    <path d="M 72 43.2  L 518.4 43.2  " style="fill:none;stroke:#262626;stroke-linecap:square;stroke-linejoin:miter;stroke-width:1.25;"/>
   </g>
   <g id="patch_12">
    <path d="M 72 388.8  L 518.4 388.8  " style="fill:none;stroke:#262626;stroke-linecap:square;stroke-linejoin:miter;stroke-width:1.25;"/>
   </g>
   <g id="patch_13">
    <path d="M 72 388.8  L 72 43.2  " style="fill:none;stroke:#262626;stroke-linecap:square;stroke-linejoin:miter;stroke-width:1.25;"/>
   </g>
   <g id="patch_14">
    <path d="M 518.4 388.8  L 518.4 43.2  " style="fill:none;stroke:#262626;stroke-linecap:square;stroke-linejoin:miter;stroke-width:1.25;"/>
   </g>
   <g id="text_20">
    <!-- y -->
    <defs>
     <path d="M 32.171875 -5.078125  Q 28.375 -14.84375 24.75 -17.8125  Q 21.140625 -20.796875 15.09375 -20.796875  L 7.90625 -20.796875  L 7.90625 -13.28125  L 13.1875 -13.28125  Q 16.890625 -13.28125 18.9375 -11.515625  Q 21 -9.765625 23.484375 -3.21875  L 25.09375 0.875  L 2.984375 54.6875  L 12.5 54.6875  L 29.59375 11.921875  L 46.6875 54.6875  L 56.203125 54.6875  z " id="DejaVuSans-79"/>
    </defs>
    <g style="fill:#0000ff;" transform="translate(199.876326638 121.493975563)scale(0.12 -0.12)">
     <use xlink:href="#DejaVuSans-79"/>
    </g>
   </g>
   <g id="text_21">
    <!-- u -->
    <defs>
     <path d="M 8.5 21.578125  L 8.5 54.6875  L 17.484375 54.6875  L 17.484375 21.921875  Q 17.484375 14.15625 20.5 10.265625  Q 23.53125 6.390625 29.59375 6.390625  Q 36.859375 6.390625 41.078125 11.03125  Q 45.3125 15.671875 45.3125 23.6875  L 45.3125 54.6875  L 54.296875 54.6875  L 54.296875 0  L 45.3125 0  L 45.3125 8.40625  Q 42.046875 3.421875 37.71875 1  Q 33.40625 -1.421875 27.6875 -1.421875  Q 18.265625 -1.421875 13.375 4.4375  Q 8.5 10.296875 8.5 21.578125  M 31.109375 56  z " id="DejaVuSans-75"/>
    </defs>
    <g style="fill:#b20000;" transform="translate(369.571185381 75.500953856)scale(0.12 -0.12)">
     <use xlink:href="#DejaVuSans-75"/>
    </g>
   </g>
   <g id="text_22">
    <!-- y -->
    <g style="fill:#0000ff;" transform="translate(218.256575147 112.623412903)scale(0.12 -0.12)">
     <use xlink:href="#DejaVuSans-79"/>
    </g>
   </g>
   <g id="text_23">
    <!-- y -->
    <g style="fill:#0000ff;" transform="translate(200.253532509 98.3987350002)scale(0.12 -0.12)">
     <use xlink:href="#DejaVuSans-79"/>
    </g>
   </g>
   <g id="text_24">
    <!-- e -->
    <defs>
     <path d="M 56.203125 29.59375  L 56.203125 25.203125  L 14.890625 25.203125  Q 15.484375 15.921875 20.484375 11.0625  Q 25.484375 6.203125 34.421875 6.203125  Q 39.59375 6.203125 44.453125 7.46875  Q 49.3125 8.734375 54.109375 11.28125  L 54.109375 2.78125  Q 49.265625 0.734375 44.1875 -0.34375  Q 39.109375 -1.421875 33.890625 -1.421875  Q 20.796875 -1.421875 13.15625 6.1875  Q 5.515625 13.8125 5.515625 26.8125  Q 5.515625 40.234375 12.765625 48.109375  Q 20.015625 56 32.328125 56  Q 43.359375 56 49.78125 48.890625  Q 56.203125 41.796875 56.203125 29.59375  M 47.21875 32.234375  Q 47.125 39.59375 43.09375 43.984375  Q 39.0625 48.390625 32.421875 48.390625  Q 24.90625 48.390625 20.390625 44.140625  Q 15.875 39.890625 15.1875 32.171875  z " id="DejaVuSans-65"/>
    </defs>
    <g style="fill:#00d9ff;" transform="translate(181.254022826 267.411049542)scale(0.12 -0.12)">
     <use xlink:href="#DejaVuSans-65"/>
    </g>
   </g>
   <g id="text_25">
    <!-- y -->
    <g style="fill:#0000ff;" transform="translate(194.66070717 120.213147017)scale(0.12 -0.12)">
     <use xlink:href="#DejaVuSans-79"/>
    </g>
   </g>
   <g id="text_26">
    <!-- u -->
    <g style="fill:#b20000;" transform="translate(385.901941998 145.637969861)scale(0.12 -0.12)">
     <use xlink:href="#DejaVuSans-75"/>
    </g>
   </g>
   <g id="text_27">
    <!-- o -->
    <defs>
     <path d="M 30.609375 48.390625  Q 23.390625 48.390625 19.1875 42.75  Q 14.984375 37.109375 14.984375 27.296875  Q 14.984375 17.484375 19.15625 11.84375  Q 23.34375 6.203125 30.609375 6.203125  Q 37.796875 6.203125 41.984375 11.859375  Q 46.1875 17.53125 46.1875 27.296875  Q 46.1875 37.015625 41.984375 42.703125  Q 37.796875 48.390625 30.609375 48.390625  M 30.609375 56  Q 42.328125 56 49.015625 48.375  Q 55.71875 40.765625 55.71875 27.296875  Q 55.71875 13.875 49.015625 6.21875  Q 42.328125 -1.421875 30.609375 -1.421875  Q 18.84375 -1.421875 12.171875 6.21875  Q 5.515625 13.875 5.515625 27.296875  Q 5.515625 40.765625 12.171875 48.375  Q 18.84375 56 30.609375 56  " id="DejaVuSans-6f"/>
    </defs>
    <g style="fill:#ff69b5;" transform="translate(398.644040804 279.93719859)scale(0.12 -0.12)">
     <use xlink:href="#DejaVuSans-6f"/>
    </g>
   </g>
   <g id="text_28">
    <!-- e -->
    <g style="fill:#00d9ff;" transform="translate(194.739528245 244.605664371)scale(0.12 -0.12)">
     <use xlink:href="#DejaVuSans-65"/>
    </g>
   </g>
   <g id="text_29">
    <!-- u -->
    <g style="fill:#b20000;" transform="translate(328.253644668 203.036940413)scale(0.12 -0.12)">
     <use xlink:href="#DejaVuSans-75"/>
    </g>
   </g>
   <g id="text_30">
    <!-- y -->
    <g style="fill:#0000ff;" transform="translate(218.866895918 59.8225106255)scale(0.12 -0.12)">
     <use xlink:href="#DejaVuSans-79"/>
    </g>
   </g>
   <g id="text_31">
    <!-- i -->
    <defs>
     <path d="M 9.421875 54.6875  L 18.40625 54.6875  L 18.40625 0  L 9.421875 0  z M 9.421875 75.984375  L 18.40625 75.984375  L 18.40625 64.59375  L 9.421875 64.59375  z " id="DejaVuSans-69"/>
    </defs>
    <g style="fill:#0000ff;" transform="translate(126.548808222 81.4648282008)scale(0.12 -0.12)">
     <use xlink:href="#DejaVuSans-69"/>
    </g>
   </g>
   <g id="text_32">
    <!-- ɯ -->
    <defs>
     <path d="M 46 10.546875  Q 42.71875 4.640625 37.9375 1.65625  Q 33.25 -1.265625 26.90625 -1.265625  Q 18.359375 -1.265625 13.71875 4.734375  Q 9.078125 10.75 9.078125 21.78125  L 9.078125 54.78125  L 18.109375 54.78125  L 18.109375 22.078125  Q 18.109375 14.15625 20.890625 10.34375  Q 23.6875 6.546875 29.390625 6.546875  Q 36.375 6.546875 40.4375 11.234375  Q 44.484375 15.828125 44.484375 23.828125  L 44.484375 54.78125  L 53.515625 54.78125  L 53.515625 22.078125  Q 53.515625 14.15625 56.296875 10.34375  Q 59.078125 6.546875 64.890625 6.546875  Q 71.78125 6.546875 75.828125 11.234375  Q 79.890625 15.921875 79.890625 23.828125  L 79.890625 54.78125  L 88.921875 54.78125  L 88.921875 0  L 79.890625 0  L 79.890625 8.59375  Q 76.90625 3.65625 72.515625 1.171875  Q 68.21875 -1.265625 62.3125 -1.265625  Q 56.34375 -1.265625 52.15625 1.765625  Q 48 4.78125 46 10.546875  " id="DejaVuSans-26f"/>
    </defs>
    <g style="fill:#b20000;" transform="translate(180.988787206 209.874205506)scale(0.12 -0.12)">
     <use xlink:href="#DejaVuSans-26f"/>
    </g>
   </g>
   <g id="text_33">
    <!-- y -->
    <g style="fill:#0000ff;" transform="translate(206.107789452 115.847494276)scale(0.12 -0.12)">
     <use xlink:href="#DejaVuSans-79"/>
    </g>
   </g>
   <g id="text_34">
    <!-- ɯ -->
    <g style="fill:#b20000;" transform="translate(195.90155234 166.859690517)scale(0.12 -0.12)">
     <use xlink:href="#DejaVuSans-26f"/>
    </g>
   </g>
   <g id="text_35">
    <!-- i -->
    <g style="fill:#0000ff;" transform="translate(130.135758687 74.3758801891)scale(0.12 -0.12)">
     <use xlink:href="#DejaVuSans-69"/>
    </g>
   </g>
   <g id="text_36">
    <!-- i -->
    <g style="fill:#0000ff;" transform="translate(128.705449114 73.8102329573)scale(0.12 -0.12)">
     <use xlink:href="#DejaVuSans-69"/>
    </g>
   </g>
   <g id="text_37">
    <!-- o -->
    <g style="fill:#ff69b5;" transform="translate(477.693161537 208.12595725)scale(0.12 -0.12)">
     <use xlink:href="#DejaVuSans-6f"/>
    </g>
   </g>
   <g id="text_38">
    <!-- o -->
    <g style="fill:#ff69b5;" transform="translate(450.103454258 243.988108692)scale(0.12 -0.12)">
     <use xlink:href="#DejaVuSans-6f"/>
    </g>
   </g>
   <g id="text_39">
    <!-- o -->
    <g style="fill:#ff69b5;" transform="translate(447.359882158 243.990726858)scale(0.12 -0.12)">
     <use xlink:href="#DejaVuSans-6f"/>
    </g>
   </g>
   <g id="text_40">
    <!-- i -->
    <g style="fill:#0000ff;" transform="translate(102.464454231 79.3147085488)scale(0.12 -0.12)">
     <use xlink:href="#DejaVuSans-69"/>
    </g>
   </g>
   <g id="text_41">
    <!-- œ -->
    <defs>
     <path d="M 87.984375 32.234375  Q 87.890625 39.65625 83.890625 44.015625  Q 79.890625 48.390625 73.1875 48.390625  Q 65.71875 48.390625 61.203125 44.140625  Q 56.6875 39.890625 56 32.171875  z M 97.015625 29.59375  L 97.015625 25.203125  L 55.71875 25.203125  Q 56.296875 15.921875 61.28125 11.0625  Q 66.265625 6.203125 75.203125 6.203125  Q 80.375 6.203125 85.25 7.46875  Q 90.140625 8.734375 94.921875 11.28125  L 94.921875 2.78125  Q 90.046875 0.734375 84.96875 -0.34375  Q 79.890625 -1.421875 74.703125 -1.421875  Q 66.890625 -1.421875 60.984375 1.265625  Q 55.078125 3.953125 51.125 9.28125  Q 47.65625 3.90625 42.546875 1.234375  Q 37.453125 -1.421875 30.609375 -1.421875  Q 18.84375 -1.421875 12.171875 6.21875  Q 5.515625 13.875 5.515625 27.296875  Q 5.515625 40.765625 12.171875 48.375  Q 18.84375 56 30.609375 56  Q 37.453125 56 42.59375 53.296875  Q 47.75 50.59375 50.984375 45.3125  Q 54.78125 50.53125 60.4375 53.265625  Q 66.109375 56 73.09375 56  Q 84.125 56 90.5625 48.890625  Q 97.015625 41.796875 97.015625 29.59375  M 30.609375 48.390625  Q 23.390625 48.390625 19.1875 42.75  Q 14.984375 37.109375 14.984375 27.296875  Q 14.984375 17.484375 19.15625 11.84375  Q 23.34375 6.203125 30.609375 6.203125  Q 37.796875 6.203125 41.984375 11.859375  Q 46.1875 17.53125 46.1875 27.296875  Q 46.1875 37.015625 41.984375 42.703125  Q 37.796875 48.390625 30.609375 48.390625  " id="DejaVuSans-153"/>
    </defs>
    <g style="fill:#00d9ff;" transform="translate(315.169164734 319.102487409)scale(0.12 -0.12)">
     <use xlink:href="#DejaVuSans-153"/>
    </g>
   </g>
   <g id="text_42">
    <!-- ɯ -->
    <g style="fill:#b20000;" transform="translate(247.764637387 258.403927274)scale(0.12 -0.12)">
     <use xlink:href="#DejaVuSans-26f"/>
    </g>
   </g>
   <g id="text_43">
    <!-- ɯ -->
    <g style="fill:#b20000;" transform="translate(220.571079506 208.378799892)scale(0.12 -0.12)">
     <use xlink:href="#DejaVuSans-26f"/>
    </g>
   </g>
   <g id="text_44">
    <!-- œ -->
    <g style="fill:#00d9ff;" transform="translate(358.22292233 298.040223068)scale(0.12 -0.12)">
     <use xlink:href="#DejaVuSans-153"/>
    </g>
   </g>
   <g id="text_45">
    <!-- ɯ -->
    <g style="fill:#b20000;" transform="translate(228.51768474 144.069637123)scale(0.12 -0.12)">
     <use xlink:href="#DejaVuSans-26f"/>
    </g>
   </g>
   <g id="text_46">
    <!-- ɑ -->
    <defs>
     <path d="M 45.40625 46.390625  L 45.40625 54.6875  L 54.390625 54.6875  L 54.390625 0  L 45.40625 0  L 45.40625 8.203125  Q 42.578125 3.328125 38.25 0.953125  Q 33.9375 -1.421875 27.875 -1.421875  Q 17.96875 -1.421875 11.734375 6.484375  Q 5.515625 14.40625 5.515625 27.296875  Q 5.515625 40.1875 11.734375 48.09375  Q 17.96875 56 27.875 56  Q 33.9375 56 38.25 53.625  Q 42.578125 51.265625 45.40625 46.390625  M 14.796875 27.296875  Q 14.796875 17.390625 18.875 11.75  Q 22.953125 6.109375 30.078125 6.109375  Q 37.203125 6.109375 41.296875 11.75  Q 45.40625 17.390625 45.40625 27.296875  Q 45.40625 37.203125 41.296875 42.84375  Q 37.203125 48.484375 30.078125 48.484375  Q 22.953125 48.484375 18.875 42.84375  Q 14.796875 37.203125 14.796875 27.296875  " id="DejaVuSans-251"/>
    </defs>
    <g style="fill:#ff69b5;" transform="translate(327.524486159 313.759639525)scale(0.12 -0.12)">
     <use xlink:href="#DejaVuSans-251"/>
    </g>
   </g>
   <g id="text_47">
    <!-- ɯ -->
    <g style="fill:#b20000;" transform="translate(225.039318452 203.114062703)scale(0.12 -0.12)">
     <use xlink:href="#DejaVuSans-26f"/>
    </g>
   </g>
   <g id="text_48">
    <!-- i -->
    <g style="fill:#0000ff;" transform="translate(160.929197117 167.473755591)scale(0.12 -0.12)">
     <use xlink:href="#DejaVuSans-69"/>
    </g>
   </g>
   <g id="text_49">
    <!-- e -->
    <g style="fill:#00d9ff;" transform="translate(194.61667875 247.909583696)scale(0.12 -0.12)">
     <use xlink:href="#DejaVuSans-65"/>
    </g>
   </g>
   <g id="text_50">
    <!-- ɑ -->
    <g style="fill:#ff69b5;" transform="translate(330.148104126 353.587128797)scale(0.12 -0.12)">
     <use xlink:href="#DejaVuSans-251"/>
    </g>
   </g>
   <g id="text_51">
    <!-- ɯ -->
    <g style="fill:#b20000;" transform="translate(200.936543048 259.021869737)scale(0.12 -0.12)">
     <use xlink:href="#DejaVuSans-26f"/>
    </g>
   </g>
   <g id="text_52">
    <!-- ɑ -->
    <g style="fill:#ff69b5;" transform="translate(309.89422969 354.76630999)scale(0.12 -0.12)">
     <use xlink:href="#DejaVuSans-251"/>
    </g>
   </g>
   <g id="text_53">
    <!-- œ -->
    <g style="fill:#00d9ff;" transform="translate(253.617194142 240.311385149)scale(0.12 -0.12)">
     <use xlink:href="#DejaVuSans-153"/>
    </g>
   </g>
   <g id="text_54">
    <!-- i -->
    <g style="fill:#0000ff;" transform="translate(180.146050769 214.85127037)scale(0.12 -0.12)">
     <use xlink:href="#DejaVuSans-69"/>
    </g>
   </g>
   <g id="text_55">
    <!-- e -->
    <g style="fill:#00d9ff;" transform="translate(164.84362215 248.362856469)scale(0.12 -0.12)">
     <use xlink:href="#DejaVuSans-65"/>
    </g>
   </g>
   <g id="text_56">
    <!-- ɯ -->
    <g style="fill:#b20000;" transform="translate(196.259942075 263.388918987)scale(0.12 -0.12)">
     <use xlink:href="#DejaVuSans-26f"/>
    </g>
   </g>
   <g id="text_57">
    <!-- ɑ -->
    <g style="fill:#ff69b5;" transform="translate(378.303563483 342.008908902)scale(0.12 -0.12)">
     <use xlink:href="#DejaVuSans-251"/>
    </g>
   </g>
   <g id="text_58">
    <!-- œ -->
    <g style="fill:#00d9ff;" transform="translate(254.083536953 224.970249082)scale(0.12 -0.12)">
     <use xlink:href="#DejaVuSans-153"/>
    </g>
   </g>
   <g id="text_59">
    <!-- o -->
    <g style="fill:#ff69b5;" transform="translate(446.016203484 246.308233308)scale(0.12 -0.12)">
     <use xlink:href="#DejaVuSans-6f"/>
    </g>
   </g>
   <g id="text_60">
    <!-- o -->
    <g style="fill:#ff69b5;" transform="translate(427.538963942 288.685679918)scale(0.12 -0.12)">
     <use xlink:href="#DejaVuSans-6f"/>
    </g>
   </g>
   <g id="text_61">
    <!-- u -->
    <g style="fill:#b20000;" transform="translate(337.385979967 188.69715948)scale(0.12 -0.12)">
     <use xlink:href="#DejaVuSans-75"/>
    </g>
   </g>
   <g id="text_62">
    <!-- u -->
    <g style="fill:#b20000;" transform="translate(401.903836845 208.066090324)scale(0.12 -0.12)">
     <use xlink:href="#DejaVuSans-75"/>
    </g>
   </g>
   <g id="text_63">
    <!-- ɑ -->
    <g style="fill:#ff69b5;" transform="translate(330.746118061 387.115616295)scale(0.12 -0.12)">
     <use xlink:href="#DejaVuSans-251"/>
    </g>
   </g>
   <g id="text_64">
    <!-- ɑ -->
    <g style="fill:#ff69b5;" transform="translate(371.536473537 336.065538712)scale(0.12 -0.12)">
     <use xlink:href="#DejaVuSans-251"/>
    </g>
   </g>
   <g id="text_65">
    <!-- u -->
    <g style="fill:#b20000;" transform="translate(487.356885889 207.078493688)scale(0.12 -0.12)">
     <use xlink:href="#DejaVuSans-75"/>
    </g>
   </g>
   <g id="text_66">
    <!-- y -->
    <g style="fill:#0000ff;" transform="translate(182.867033776 204.902167679)scale(0.12 -0.12)">
     <use xlink:href="#DejaVuSans-79"/>
    </g>
   </g>
   <g id="text_67">
    <!-- u -->
    <g style="fill:#b20000;" transform="translate(337.246431512 148.973565382)scale(0.12 -0.12)">
     <use xlink:href="#DejaVuSans-75"/>
    </g>
   </g>
   <g id="text_68">
    <!-- y -->
    <g style="fill:#0000ff;" transform="translate(263.889414093 138.627364069)scale(0.12 -0.12)">
     <use xlink:href="#DejaVuSans-79"/>
    </g>
   </g>
   <g id="text_69">
    <!-- u -->
    <g style="fill:#b20000;" transform="translate(349.58002125 225.454302638)scale(0.12 -0.12)">
     <use xlink:href="#DejaVuSans-75"/>
    </g>
   </g>
   <g id="text_70">
    <!-- œ -->
    <g style="fill:#00d9ff;" transform="translate(234.647800986 230.398556517)scale(0.12 -0.12)">
     <use xlink:href="#DejaVuSans-153"/>
    </g>
   </g>
   <g id="text_71">
    <!-- y -->
    <g style="fill:#0000ff;" transform="translate(278.608084292 144.07567448)scale(0.12 -0.12)">
     <use xlink:href="#DejaVuSans-79"/>
    </g>
   </g>
   <g id="text_72">
    <!-- ɑ -->
    <g style="fill:#ff69b5;" transform="translate(307.073707777 344.702813742)scale(0.12 -0.12)">
     <use xlink:href="#DejaVuSans-251"/>
    </g>
   </g>
   <g id="text_73">
    <!-- ɑ -->
    <g style="fill:#ff69b5;" transform="translate(340.170246357 368.760835235)scale(0.12 -0.12)">
     <use xlink:href="#DejaVuSans-251"/>
    </g>
   </g>
   <g id="text_74">
    <!-- u -->
    <g style="fill:#b20000;" transform="translate(342.398444574 122.914168829)scale(0.12 -0.12)">
     <use xlink:href="#DejaVuSans-75"/>
    </g>
   </g>
   <g id="text_75">
    <!-- y -->
    <g style="fill:#0000ff;" transform="translate(191.378194437 199.521934299)scale(0.12 -0.12)">
     <use xlink:href="#DejaVuSans-79"/>
    </g>
   </g>
   <g id="text_76">
    <!-- œ -->
    <g style="fill:#00d9ff;" transform="translate(260.54183239 259.095402093)scale(0.12 -0.12)">
     <use xlink:href="#DejaVuSans-153"/>
    </g>
   </g>
   <g id="text_77">
    <!-- u -->
    <g style="fill:#b20000;" transform="translate(356.86401846 229.973690749)scale(0.12 -0.12)">
     <use xlink:href="#DejaVuSans-75"/>
    </g>
   </g>
   <g id="text_78">
    <!-- ɑ -->
    <g style="fill:#ff69b5;" transform="translate(310.196736064 367.392996)scale(0.12 -0.12)">
     <use xlink:href="#DejaVuSans-251"/>
    </g>
   </g>
  </g>
 </g>
 <defs>
  <clipPath id="p2a0593d0bf">
   <rect height="345.6" width="446.4" x="72.0" y="43.2"/>
  </clipPath>
 </defs>
</svg>