<?xml version="1.0" encoding="UTF-8" standalone="no"?>
<!-- Created with Inkscape (http://www.inkscape.org/) -->

<svg
   version="1.1"
   id="svg2"
   width="672"
   height="672"
   viewBox="0 0 672 672"
   sodipodi:docname="turkish_ulmaut.pdf"
   inkscape:version="1.2.2 (b0a8486541, 2022-12-01)"
   xmlns:inkscape="http://www.inkscape.org/namespaces/inkscape"
   xmlns:sodipodi="http://sodipodi.sourceforge.net/DTD/sodipodi-0.dtd"
   xmlns="http://www.w3.org/2000/svg"
   xmlns:svg="http://www.w3.org/2000/svg">
  <defs
     id="defs6" />
  <sodipodi:namedview
     id="namedview4"
     pagecolor="#ffffff"
     bordercolor="#666666"
     borderopacity="1.0"
     inkscape:showpageshadow="2"
     inkscape:pageopacity="0.0"
     inkscape:pagecheckerboard="0"
     inkscape:deskcolor="#d1d1d1"
     showgrid="false"
     inkscape:zoom="0.88095238"
     inkscape:cx="336"
     inkscape:cy="336"
     inkscape:window-width="1536"
     inkscape:window-height="795"
     inkscape:window-x="0"
     inkscape:window-y="0"
     inkscape:window-maximized="1"
     inkscape:current-layer="g10">
    <inkscape:page
       x="0"
       y="0"
       id="page8"
       width="672"
       height="672" />
  </sodipodi:namedview>
  <g
     id="g10"
     inkscape:groupmode="layer"
     inkscape:label="Page 1"
     transform="matrix(1.3333333,0,0,1.3333333,0,1.68e-5)">
    <g
       id="g12">
      <path
         d="M 0,0 H 504 V 504 H 0 Z"
         style="fill:#ffffff;fill-opacity:1;fill-rule:nonzero;stroke:none"
         id="path14" />
      <text
         xml:space="preserve"
         transform="translate(216.19922,40.068359)"
         style="font-variant:normal;font-weight:normal;font-size:12px;font-family:'Nimbus Sans';-inkscape-font-specification:NimbusSans-Regular;writing-mode:lr-tb;fill:#000000;fill-opacity:1;fill-rule:nonzero;stroke:none"
         id="text18"><tspan
           x="0 6.9959998"
           y="0"
           sodipodi:role="line"
           id="tspan16">F2</tspan></text>
      <text
         xml:space="preserve"
         transform="rotate(-90,387.13379,-99.333008)"
         style="font-variant:normal;font-weight:normal;font-size:12px;font-family:'Nimbus Sans';-inkscape-font-specification:NimbusSans-Regular;writing-mode:lr-tb;fill:#000000;fill-opacity:1;fill-rule:nonzero;stroke:none"
         id="text22"><tspan
           x="0 6.9959998"
           y="0"
           sodipodi:role="line"
           id="tspan20">F1</tspan></text>
      <path
         d="M 432,72 H 14.398"
         style="fill:none;stroke:#000000;stroke-width:0.75;stroke-linecap:round;stroke-linejoin:round;stroke-miterlimit:10;stroke-dasharray:none;stroke-opacity:1"
         id="path24" />
      <path
         d="M 432,72 V 64.801"
         style="fill:none;stroke:#000000;stroke-width:0.75;stroke-linecap:round;stroke-linejoin:round;stroke-miterlimit:10;stroke-dasharray:none;stroke-opacity:1"
         id="path26" />
      <path
         d="M 372.344,72 V 64.801"
         style="fill:none;stroke:#000000;stroke-width:0.75;stroke-linecap:round;stroke-linejoin:round;stroke-miterlimit:10;stroke-dasharray:none;stroke-opacity:1"
         id="path28" />
      <path
         d="M 312.688,72 V 64.801"
         style="fill:none;stroke:#000000;stroke-width:0.75;stroke-linecap:round;stroke-linejoin:round;stroke-miterlimit:10;stroke-dasharray:none;stroke-opacity:1"
         id="path30" />
      <path
         d="M 253.027,72 V 64.801"
         style="fill:none;stroke:#000000;stroke-width:0.75;stroke-linecap:round;stroke-linejoin:round;stroke-miterlimit:10;stroke-dasharray:none;stroke-opacity:1"
         id="path32" />
      <path
         d="M 193.371,72 V 64.801"
         style="fill:none;stroke:#000000;stroke-width:0.75;stroke-linecap:round;stroke-linejoin:round;stroke-miterlimit:10;stroke-dasharray:none;stroke-opacity:1"
         id="path34" />
      <path
         d="M 133.715,72 V 64.801"
         style="fill:none;stroke:#000000;stroke-width:0.75;stroke-linecap:round;stroke-linejoin:round;stroke-miterlimit:10;stroke-dasharray:none;stroke-opacity:1"
         id="path36" />
      <path
         d="M 74.059,72 V 64.801"
         style="fill:none;stroke:#000000;stroke-width:0.75;stroke-linecap:round;stroke-linejoin:round;stroke-miterlimit:10;stroke-dasharray:none;stroke-opacity:1"
         id="path38" />
      <path
         d="M 14.398,72 V 64.801"
         style="fill:none;stroke:#000000;stroke-width:0.75;stroke-linecap:round;stroke-linejoin:round;stroke-miterlimit:10;stroke-dasharray:none;stroke-opacity:1"
         id="path40" />
      <text
         xml:space="preserve"
         transform="translate(0.398438,54.466797)"
         style="font-variant:normal;font-weight:normal;font-size:12px;font-family:'Nimbus Sans';-inkscape-font-specification:NimbusSans-Regular;writing-mode:lr-tb;fill:#000000;fill-opacity:1;fill-rule:nonzero;stroke:none"
         id="text44"><tspan
           x="0 6.9959998 14.004 21 59.664001 66.660004 73.655998 80.664001 119.316 126.312 133.32001 140.31599 178.968 185.976 192.972 199.968 238.62891 245.62491 252.6329 259.62891 298.29291 305.28891 312.28491 319.29291 357.94492 364.94092 371.94891 378.94492 417.59689 424.60489 431.60089 438.59689"
           y="0"
           sodipodi:role="line"
           id="tspan42">24002200200018001600140012001000</tspan></text>
      <path
         d="M 432,72 V 489.602"
         style="fill:none;stroke:#000000;stroke-width:0.75;stroke-linecap:round;stroke-linejoin:round;stroke-miterlimit:10;stroke-dasharray:none;stroke-opacity:1"
         id="path46" />
      <path
         d="m 432,72 h 7.199"
         style="fill:none;stroke:#000000;stroke-width:0.75;stroke-linecap:round;stroke-linejoin:round;stroke-miterlimit:10;stroke-dasharray:none;stroke-opacity:1"
         id="path48" />
      <path
         d="m 432,131.656 h 7.199"
         style="fill:none;stroke:#000000;stroke-width:0.75;stroke-linecap:round;stroke-linejoin:round;stroke-miterlimit:10;stroke-dasharray:none;stroke-opacity:1"
         id="path50" />
      <path
         d="m 432,191.312 h 7.199"
         style="fill:none;stroke:#000000;stroke-width:0.75;stroke-linecap:round;stroke-linejoin:round;stroke-miterlimit:10;stroke-dasharray:none;stroke-opacity:1"
         id="path52" />
      <path
         d="m 432,250.973 h 7.199"
         style="fill:none;stroke:#000000;stroke-width:0.75;stroke-linecap:round;stroke-linejoin:round;stroke-miterlimit:10;stroke-dasharray:none;stroke-opacity:1"
         id="path54" />
      <path
         d="m 432,310.629 h 7.199"
         style="fill:none;stroke:#000000;stroke-width:0.75;stroke-linecap:round;stroke-linejoin:round;stroke-miterlimit:10;stroke-dasharray:none;stroke-opacity:1"
         id="path56" />
      <path
         d="m 432,370.285 h 7.199"
         style="fill:none;stroke:#000000;stroke-width:0.75;stroke-linecap:round;stroke-linejoin:round;stroke-miterlimit:10;stroke-dasharray:none;stroke-opacity:1"
         id="path58" />
      <path
         d="m 432,429.941 h 7.199"
         style="fill:none;stroke:#000000;stroke-width:0.75;stroke-linecap:round;stroke-linejoin:round;stroke-miterlimit:10;stroke-dasharray:none;stroke-opacity:1"
         id="path60" />
      <path
         d="m 432,489.602 h 7.199"
         style="fill:none;stroke:#000000;stroke-width:0.75;stroke-linecap:round;stroke-linejoin:round;stroke-miterlimit:10;stroke-dasharray:none;stroke-opacity:1"
         id="path62" />
      <text
         xml:space="preserve"
         transform="translate(446.39844,493.84961)"
         style="font-variant:normal;font-weight:normal;font-size:12px;font-family:'Nimbus Sans';-inkscape-font-specification:NimbusSans-Regular;writing-mode:lr-tb;fill:#000000;fill-opacity:1;fill-rule:nonzero;stroke:none"
         id="text80"><tspan
           x="0 6.9959998 14.004 21"
           y="0"
           sodipodi:role="line"
           id="tspan64">1000</tspan><tspan
           x="0 6.9959998 14.004"
           y="-59.66016"
           sodipodi:role="line"
           id="tspan66">900</tspan><tspan
           x="0 6.9959998 14.004"
           y="-119.31641"
           sodipodi:role="line"
           id="tspan68">800</tspan><tspan
           x="0 6.9959998 14.004"
           y="-178.97266"
           sodipodi:role="line"
           id="tspan70">700</tspan><tspan
           x="0 6.9959998 14.004"
           y="-238.62891"
           sodipodi:role="line"
           id="tspan72">600</tspan><tspan
           x="0 6.9959998 14.004"
           y="-298.28906"
           sodipodi:role="line"
           id="tspan74">500</tspan><tspan
           x="0 6.9959998 14.004"
           y="-357.94531"
           sodipodi:role="line"
           id="tspan76">400</tspan><tspan
           x="0 6.9959998 14.004"
           y="-417.60156"
           sodipodi:role="line"
           id="tspan78">300</tspan></text>
      <path
         d="m 248.273,324.469 -0.601,0.617 -0.59,0.66 -0.578,0.707 -0.566,0.75 -0.555,0.793 -0.539,0.836 -0.528,0.883 -0.511,0.918 -0.5,0.965 -0.485,1.004 -0.468,1.043 -0.457,1.082 -0.442,1.121 -0.426,1.16 -0.406,1.199 -0.394,1.231 -0.379,1.269 -0.36,1.305 -0.343,1.34 -0.329,1.371 -0.308,1.402 -0.293,1.437 -0.274,1.465 -0.257,1.496 -0.243,1.524 -0.218,1.555 -0.203,1.578 -0.188,1.605 -0.168,1.629 -0.148,1.652 -0.129,1.676 -0.11,1.696 -0.093,1.718 -0.075,1.735 -0.054,1.757 -0.035,1.77 -0.016,1.789 v 1.805 l 0.019,1.816 0.039,1.828 0.059,1.844 0.078,1.848 0.098,1.863 0.113,1.867 0.133,1.875 0.152,1.879 0.172,1.887 0.188,1.886 0.207,1.891 0.226,1.887 0.242,1.89 0.262,1.887 0.278,1.887 0.296,1.883 0.313,1.875 0.332,1.867 0.348,1.863 0.363,1.852 0.379,1.843 0.394,1.829 0.414,1.82 0.43,1.805 0.441,1.789 0.458,1.777 0.476,1.758 0.484,1.738 0.504,1.719 0.516,1.703 0.527,1.676 0.543,1.656 0.559,1.633 0.566,1.609 0.578,1.582 0.594,1.559 0.602,1.527 0.617,1.5 0.625,1.469 0.633,1.441 0.644,1.407 0.656,1.378 0.665,1.344 0.671,1.309 0.68,1.273 0.688,1.239 0.695,1.203 0.699,1.164 0.711,1.129 0.715,1.089 0.719,1.047 0.722,1.012 0.731,0.965 0.734,0.93 0.735,0.886 0.742,0.84 0.742,0.801 0.746,0.758 0.746,0.711 0.746,0.672 0.75,0.621 0.75,0.578 0.75,0.535 0.746,0.484 0.746,0.442 0.747,0.394 0.746,0.348 0.738,0.301 0.738,0.25 0.735,0.207 0.73,0.16 0.727,0.109 0.722,0.063 0.715,0.015 0.711,-0.031 0.703,-0.082 0.699,-0.125 0.688,-0.176 0.683,-0.222 0.676,-0.27 0.664,-0.316 0.657,-0.367 0.648,-0.411 0.641,-0.457 0.625,-0.5 0.621,-0.55 0.605,-0.594 0.594,-0.641 0.586,-0.683 0.57,-0.727 0.559,-0.773 0.547,-0.817 0.535,-0.859 0.519,-0.899 0.504,-0.941 0.492,-0.984 0.481,-1.024 0.461,-1.062 0.449,-1.102 0.434,-1.144 0.414,-1.176 0.402,-1.215 0.387,-1.254 0.367,-1.285 0.351,-1.32 0.336,-1.356 0.321,-1.391 0.301,-1.418 0.285,-1.453 0.265,-1.48 0.25,-1.508 0.231,-1.539 0.211,-1.566 0.195,-1.59 0.176,-1.617 0.156,-1.641 0.141,-1.664 0.121,-1.688 0.101,-1.707 0.082,-1.726 0.063,-1.746 0.047,-1.766 0.027,-1.781 0.008,-1.797 -0.012,-1.809 -0.031,-1.824 -0.047,-1.836 -0.07,-1.844 -0.086,-1.855 -0.106,-1.863 -0.125,-1.875 -0.14,-1.875 -0.16,-1.883 -0.18,-1.887 -0.199,-1.89 -0.215,-1.887 -0.235,-1.891 -0.253,-1.89 -0.27,-1.887 -0.285,-1.883 -0.305,-1.879 -0.324,-1.871 -0.34,-1.867 -0.355,-1.856 -0.371,-1.847 -0.387,-1.836 -0.406,-1.828 -0.418,-1.809 -0.438,-1.801 -0.449,-1.781 -0.469,-1.766 -0.48,-1.75 -0.493,-1.73 -0.507,-1.711 -0.524,-1.687 -0.535,-1.668 -0.551,-1.645 -0.562,-1.621 -0.574,-1.594 -0.586,-1.57 -0.598,-1.543 -0.609,-1.516 -0.618,-1.484 -0.632,-1.453 -0.637,-1.426 -0.652,-1.395 -0.657,-1.359 -0.668,-1.324 -0.675,-1.293 -0.684,-1.258 -0.691,-1.219 -0.7,-1.183 -0.707,-1.149 -0.711,-1.105 -0.714,-1.07 -0.723,-1.032 -0.727,-0.988 -0.734,-0.945 -0.734,-0.91 -0.739,-0.864 -0.742,-0.82 -0.742,-0.777 -0.746,-0.739 -0.75,-0.687 -0.746,-0.649 -0.75,-0.601 -0.75,-0.555 -0.746,-0.508 -0.75,-0.465 -0.747,-0.418 -0.746,-0.371 -0.742,-0.324 -0.738,-0.277 -0.734,-0.227 -0.735,-0.183 -0.726,-0.133 -0.727,-0.09 -0.719,-0.039 -0.711,0.012 -0.707,0.054 -0.703,0.106 -0.691,0.148 -0.688,0.2 -0.679,0.246 -0.668,0.293 -0.664,0.343 -0.653,0.387 -0.64,0.434 -0.633,0.48 -0.625,0.524 z"
         style="fill:#b78843;fill-opacity:0.101961;fill-rule:nonzero;stroke:none"
         id="path82" />
      <path
         d="m 248.273,324.469 -0.601,0.617 -0.59,0.66 -0.578,0.707 -0.566,0.75 -0.555,0.793 -0.539,0.836 -0.528,0.883 -0.511,0.918 -0.5,0.965 -0.485,1.004 -0.468,1.043 -0.457,1.082 -0.442,1.121 -0.426,1.16 -0.406,1.199 -0.394,1.231 -0.379,1.269 -0.36,1.305 -0.343,1.34 -0.329,1.371 -0.308,1.402 -0.293,1.437 -0.274,1.465 -0.257,1.496 -0.243,1.524 -0.218,1.555 -0.203,1.578 -0.188,1.605 -0.168,1.629 -0.148,1.652 -0.129,1.676 -0.11,1.696 -0.093,1.718 -0.075,1.735 -0.054,1.757 -0.035,1.77 -0.016,1.789 v 1.805 l 0.019,1.816 0.039,1.828 0.059,1.844 0.078,1.848 0.098,1.863 0.113,1.867 0.133,1.875 0.152,1.879 0.172,1.887 0.188,1.886 0.207,1.891 0.226,1.887 0.242,1.89 0.262,1.887 0.278,1.887 0.296,1.883 0.313,1.875 0.332,1.867 0.348,1.863 0.363,1.852 0.379,1.843 0.394,1.829 0.414,1.82 0.43,1.805 0.441,1.789 0.458,1.777 0.476,1.758 0.484,1.738 0.504,1.719 0.516,1.703 0.527,1.676 0.543,1.656 0.559,1.633 0.566,1.609 0.578,1.582 0.594,1.559 0.602,1.527 0.617,1.5 0.625,1.469 0.633,1.441 0.644,1.407 0.656,1.378 0.665,1.344 0.671,1.309 0.68,1.273 0.688,1.239 0.695,1.203 0.699,1.164 0.711,1.129 0.715,1.089 0.719,1.047 0.722,1.012 0.731,0.965 0.734,0.93 0.735,0.886 0.742,0.84 0.742,0.801 0.746,0.758 0.746,0.711 0.746,0.672 0.75,0.621 0.75,0.578 0.75,0.535 0.746,0.484 0.746,0.442 0.747,0.394 0.746,0.348 0.738,0.301 0.738,0.25 0.735,0.207 0.73,0.16 0.727,0.109 0.722,0.063 0.715,0.015 0.711,-0.031 0.703,-0.082 0.699,-0.125 0.688,-0.176 0.683,-0.222 0.676,-0.27 0.664,-0.316 0.657,-0.367 0.648,-0.411 0.641,-0.457 0.625,-0.5 0.621,-0.55 0.605,-0.594 0.594,-0.641 0.586,-0.683 0.57,-0.727 0.559,-0.773 0.547,-0.817 0.535,-0.859 0.519,-0.899 0.504,-0.941 0.492,-0.984 0.481,-1.024 0.461,-1.062 0.449,-1.102 0.434,-1.144 0.414,-1.176 0.402,-1.215 0.387,-1.254 0.367,-1.285 0.351,-1.32 0.336,-1.356 0.321,-1.391 0.301,-1.418 0.285,-1.453 0.265,-1.48 0.25,-1.508 0.231,-1.539 0.211,-1.566 0.195,-1.59 0.176,-1.617 0.156,-1.641 0.141,-1.664 0.121,-1.688 0.101,-1.707 0.082,-1.726 0.063,-1.746 0.047,-1.766 0.027,-1.781 0.008,-1.797 -0.012,-1.809 -0.031,-1.824 -0.047,-1.836 -0.07,-1.844 -0.086,-1.855 -0.106,-1.863 -0.125,-1.875 -0.14,-1.875 -0.16,-1.883 -0.18,-1.887 -0.199,-1.89 -0.215,-1.887 -0.235,-1.891 -0.253,-1.89 -0.27,-1.887 -0.285,-1.883 -0.305,-1.879 -0.324,-1.871 -0.34,-1.867 -0.355,-1.856 -0.371,-1.847 -0.387,-1.836 -0.406,-1.828 -0.418,-1.809 -0.438,-1.801 -0.449,-1.781 -0.469,-1.766 -0.48,-1.75 -0.493,-1.73 -0.507,-1.711 -0.524,-1.687 -0.535,-1.668 -0.551,-1.645 -0.562,-1.621 -0.574,-1.594 -0.586,-1.57 -0.598,-1.543 -0.609,-1.516 -0.618,-1.484 -0.632,-1.453 -0.637,-1.426 -0.652,-1.395 -0.657,-1.359 -0.668,-1.324 -0.675,-1.293 -0.684,-1.258 -0.691,-1.219 -0.7,-1.183 -0.707,-1.149 -0.711,-1.105 -0.714,-1.07 -0.723,-1.032 -0.727,-0.988 -0.734,-0.945 -0.734,-0.91 -0.739,-0.864 -0.742,-0.82 -0.742,-0.777 -0.746,-0.739 -0.75,-0.687 -0.746,-0.649 -0.75,-0.601 -0.75,-0.555 -0.746,-0.508 -0.75,-0.465 -0.747,-0.418 -0.746,-0.371 -0.742,-0.324 -0.738,-0.277 -0.734,-0.227 -0.735,-0.183 -0.726,-0.133 -0.727,-0.09 -0.719,-0.039 -0.711,0.012 -0.707,0.054 -0.703,0.106 -0.691,0.148 -0.688,0.2 -0.679,0.246 -0.668,0.293 -0.664,0.343 -0.653,0.387 -0.64,0.434 -0.633,0.48 -0.625,0.524 z"
         style="fill:none;stroke:#b78843;stroke-width:0.75;stroke-linecap:round;stroke-linejoin:round;stroke-miterlimit:10;stroke-dasharray:none;stroke-opacity:1"
         id="path84" />
      <path
         d="m 38.125,133.891 -0.391,1.148 -0.367,1.18 -0.34,1.219 -0.312,1.253 -0.285,1.289 -0.258,1.321 -0.231,1.351 -0.203,1.387 -0.176,1.418 -0.148,1.445 -0.121,1.477 -0.094,1.504 -0.066,1.527 -0.035,1.559 -0.012,1.582 0.019,1.605 0.047,1.633 0.075,1.649 0.105,1.675 0.129,1.692 0.156,1.711 0.188,1.73 0.211,1.746 0.242,1.762 0.265,1.777 0.297,1.793 0.321,1.801 0.347,1.813 0.375,1.824 0.403,1.832 0.425,1.84 0.45,1.847 0.48,1.852 0.5,1.855 0.527,1.86 0.555,1.859 0.574,1.859 0.602,1.86 0.621,1.859 0.645,1.856 0.667,1.851 0.692,1.848 0.711,1.84 0.734,1.832 0.754,1.82 0.774,1.813 0.793,1.8 0.812,1.793 0.832,1.774 0.852,1.761 0.867,1.747 0.883,1.726 0.902,1.711 0.918,1.691 0.93,1.672 0.949,1.653 0.961,1.629 0.976,1.601 0.989,1.582 1,1.555 1.011,1.531 1.024,1.5 1.031,1.473 1.043,1.445 1.051,1.414 1.062,1.387 1.067,1.351 1.078,1.317 1.078,1.285 1.09,1.254 1.09,1.215 1.097,1.179 1.102,1.145 1.101,1.105 1.106,1.067 1.105,1.027 1.11,0.992 1.105,0.95 1.106,0.906 1.105,0.867 1.106,0.828 1.097,0.781 1.098,0.743 1.094,0.695 1.09,0.656 1.082,0.609 1.074,0.563 1.07,0.52 1.063,0.476 1.05,0.426 1.047,0.387 1.035,0.336 1.024,0.289 1.015,0.246 1,0.195 0.993,0.152 0.976,0.106 0.961,0.054 0.949,0.012 0.938,-0.035 0.918,-0.086 0.906,-0.129 0.887,-0.179 0.867,-0.223 0.855,-0.27 0.832,-0.316 0.817,-0.363 0.797,-0.411 0.777,-0.457 0.758,-0.5 0.738,-0.543 0.715,-0.589 0.691,-0.637 0.672,-0.676 0.649,-0.722 0.629,-0.766 0.601,-0.805 0.582,-0.851 0.555,-0.891 0.531,-0.93 0.508,-0.972 0.48,-1.012 0.458,-1.051 0.429,-1.09 0.406,-1.129 0.379,-1.164 0.352,-1.199 0.324,-1.234 0.301,-1.274 0.269,-1.304 0.247,-1.336 0.214,-1.371 0.192,-1.399 0.164,-1.433 0.133,-1.461 0.105,-1.489 0.082,-1.519 0.051,-1.543 0.023,-1.57 -0.004,-1.594 -0.035,-1.617 -0.058,-1.641 -0.09,-1.664 -0.117,-1.684 -0.145,-1.703 -0.172,-1.719 -0.199,-1.738 -0.227,-1.754 -0.253,-1.769 -0.282,-1.785 -0.304,-1.797 -0.336,-1.809 -0.364,-1.816 -0.386,-1.828 -0.414,-1.836 -0.438,-1.844 -0.465,-1.852 -0.492,-1.851 -0.516,-1.86 -0.539,-1.859 -0.562,-1.859 -0.59,-1.86 -0.609,-1.859 -0.633,-1.859 -0.66,-1.852 -0.676,-1.852 -0.703,-1.839 -0.723,-1.836 -0.742,-1.829 -0.766,-1.82 -0.781,-1.805 -0.805,-1.796 -0.824,-1.782 -0.84,-1.769 -0.859,-1.754 -0.875,-1.738 -0.895,-1.719 -0.906,-1.699 -0.926,-1.684 -0.941,-1.66 -0.953,-1.641 -0.969,-1.617 -0.98,-1.594 -0.996,-1.566 -1.004,-1.543 -1.02,-1.516 -1.027,-1.488 -1.039,-1.457 -1.047,-1.43 -1.055,-1.398 -1.066,-1.371 -1.071,-1.332 -1.078,-1.305 -1.086,-1.269 -1.089,-1.231 -1.094,-1.199 -1.098,-1.16 -1.101,-1.125 -1.106,-1.09 -1.105,-1.047 -1.106,-1.008 -1.109,-0.972 -1.106,-0.926 -1.105,-0.891 -1.106,-0.844 -1.101,-0.804 -1.098,-0.762 -1.097,-0.723 -1.09,-0.672 -1.086,-0.632 -1.078,-0.586 -1.075,-0.543 -1.066,-0.496 -1.055,-0.454 -1.05,-0.406 -1.04,-0.359 -1.031,-0.317 -1.019,-0.265 -1.008,-0.223 -0.996,-0.172 -0.985,-0.129 -0.968,-0.082 -0.957,-0.031 -0.942,0.012 -0.926,0.062 -0.914,0.106 -0.894,0.156 -0.879,0.199 -0.863,0.246 -0.844,0.293 -0.824,0.34 -0.805,0.387 -0.789,0.433 -0.766,0.477 -0.746,0.523 -0.726,0.567 -0.707,0.613 -0.68,0.656 -0.664,0.7 -0.637,0.742 -0.613,0.789 -0.594,0.828 -0.566,0.867 -0.543,0.914 -0.52,0.953 -0.496,0.989 -0.469,1.035 -0.441,1.07 z"
         style="fill:#749300;fill-opacity:0.101961;fill-rule:nonzero;stroke:none"
         id="path86" />
      <path
         d="m 38.125,133.891 -0.391,1.148 -0.367,1.18 -0.34,1.219 -0.312,1.253 -0.285,1.289 -0.258,1.321 -0.231,1.351 -0.203,1.387 -0.176,1.418 -0.148,1.445 -0.121,1.477 -0.094,1.504 -0.066,1.527 -0.035,1.559 -0.012,1.582 0.019,1.605 0.047,1.633 0.075,1.649 0.105,1.675 0.129,1.692 0.156,1.711 0.188,1.73 0.211,1.746 0.242,1.762 0.265,1.777 0.297,1.793 0.321,1.801 0.347,1.813 0.375,1.824 0.403,1.832 0.425,1.84 0.45,1.847 0.48,1.852 0.5,1.855 0.527,1.86 0.555,1.859 0.574,1.859 0.602,1.86 0.621,1.859 0.645,1.856 0.667,1.851 0.692,1.848 0.711,1.84 0.734,1.832 0.754,1.82 0.774,1.813 0.793,1.8 0.812,1.793 0.832,1.774 0.852,1.761 0.867,1.747 0.883,1.726 0.902,1.711 0.918,1.691 0.93,1.672 0.949,1.653 0.961,1.629 0.976,1.601 0.989,1.582 1,1.555 1.011,1.531 1.024,1.5 1.031,1.473 1.043,1.445 1.051,1.414 1.062,1.387 1.067,1.351 1.078,1.317 1.078,1.285 1.09,1.254 1.09,1.215 1.097,1.179 1.102,1.145 1.101,1.105 1.106,1.067 1.105,1.027 1.11,0.992 1.105,0.95 1.106,0.906 1.105,0.867 1.106,0.828 1.097,0.781 1.098,0.743 1.094,0.695 1.09,0.656 1.082,0.609 1.074,0.563 1.07,0.52 1.063,0.476 1.05,0.426 1.047,0.387 1.035,0.336 1.024,0.289 1.015,0.246 1,0.195 0.993,0.152 0.976,0.106 0.961,0.054 0.949,0.012 0.938,-0.035 0.918,-0.086 0.906,-0.129 0.887,-0.179 0.867,-0.223 0.855,-0.27 0.832,-0.316 0.817,-0.363 0.797,-0.411 0.777,-0.457 0.758,-0.5 0.738,-0.543 0.715,-0.589 0.691,-0.637 0.672,-0.676 0.649,-0.722 0.629,-0.766 0.601,-0.805 0.582,-0.851 0.555,-0.891 0.531,-0.93 0.508,-0.972 0.48,-1.012 0.458,-1.051 0.429,-1.09 0.406,-1.129 0.379,-1.164 0.352,-1.199 0.324,-1.234 0.301,-1.274 0.269,-1.304 0.247,-1.336 0.214,-1.371 0.192,-1.399 0.164,-1.433 0.133,-1.461 0.105,-1.489 0.082,-1.519 0.051,-1.543 0.023,-1.57 -0.004,-1.594 -0.035,-1.617 -0.058,-1.641 -0.09,-1.664 -0.117,-1.684 -0.145,-1.703 -0.172,-1.719 -0.199,-1.738 -0.227,-1.754 -0.253,-1.769 -0.282,-1.785 -0.304,-1.797 -0.336,-1.809 -0.364,-1.816 -0.386,-1.828 -0.414,-1.836 -0.438,-1.844 -0.465,-1.852 -0.492,-1.851 -0.516,-1.86 -0.539,-1.859 -0.562,-1.859 -0.59,-1.86 -0.609,-1.859 -0.633,-1.859 -0.66,-1.852 -0.676,-1.852 -0.703,-1.839 -0.723,-1.836 -0.742,-1.829 -0.766,-1.82 -0.781,-1.805 -0.805,-1.796 -0.824,-1.782 -0.84,-1.769 -0.859,-1.754 -0.875,-1.738 -0.895,-1.719 -0.906,-1.699 -0.926,-1.684 -0.941,-1.66 -0.953,-1.641 -0.969,-1.617 -0.98,-1.594 -0.996,-1.566 -1.004,-1.543 -1.02,-1.516 -1.027,-1.488 -1.039,-1.457 -1.047,-1.43 -1.055,-1.398 -1.066,-1.371 -1.071,-1.332 -1.078,-1.305 -1.086,-1.269 -1.089,-1.231 -1.094,-1.199 -1.098,-1.16 -1.101,-1.125 -1.106,-1.09 -1.105,-1.047 -1.106,-1.008 -1.109,-0.972 -1.106,-0.926 -1.105,-0.891 -1.106,-0.844 -1.101,-0.804 -1.098,-0.762 -1.097,-0.723 -1.09,-0.672 -1.086,-0.632 -1.078,-0.586 -1.075,-0.543 -1.066,-0.496 -1.055,-0.454 -1.05,-0.406 -1.04,-0.359 -1.031,-0.317 -1.019,-0.265 -1.008,-0.223 -0.996,-0.172 -0.985,-0.129 -0.968,-0.082 -0.957,-0.031 -0.942,0.012 -0.926,0.062 -0.914,0.106 -0.894,0.156 -0.879,0.199 -0.863,0.246 -0.844,0.293 -0.824,0.34 -0.805,0.387 -0.789,0.433 -0.766,0.477 -0.746,0.523 -0.726,0.567 -0.707,0.613 -0.68,0.656 -0.664,0.7 -0.637,0.742 -0.613,0.789 -0.594,0.828 -0.566,0.867 -0.543,0.914 -0.52,0.953 -0.496,0.989 -0.469,1.035 -0.441,1.07 z"
         style="fill:none;stroke:#749300;stroke-width:0.75;stroke-linecap:round;stroke-linejoin:round;stroke-miterlimit:10;stroke-dasharray:none;stroke-opacity:1"
         id="path88" />
      <path
         d="M 343.492,365.301 Z"
         style="fill:none;stroke:#009860;stroke-width:0.75;stroke-linecap:round;stroke-linejoin:round;stroke-miterlimit:10;stroke-dasharray:none;stroke-opacity:1"
         id="path90" />
      <path
         d="m 146.352,255.465 -0.043,1.57 0.015,1.578 0.071,1.586 0.125,1.594 0.183,1.598 0.242,1.605 0.297,1.609 0.352,1.614 0.41,1.617 0.465,1.617 0.523,1.617 0.574,1.618 0.633,1.617 0.684,1.613 0.742,1.605 0.793,1.606 0.844,1.598 0.902,1.593 0.949,1.582 1.004,1.575 1.051,1.566 1.102,1.555 1.152,1.539 1.203,1.531 1.25,1.516 1.293,1.5 1.344,1.484 1.386,1.469 1.434,1.453 1.473,1.43 1.519,1.414 1.559,1.394 1.601,1.371 1.641,1.348 1.68,1.328 1.715,1.301 1.753,1.281 1.789,1.25 1.821,1.227 1.855,1.199 1.887,1.172 1.918,1.144 1.949,1.113 1.977,1.086 2,1.051 2.031,1.024 2.051,0.988 2.074,0.961 2.098,0.922 2.117,0.89 2.137,0.856 2.156,0.824 2.172,0.785 2.183,0.75 2.2,0.711 2.214,0.68 2.219,0.637 2.234,0.601 2.239,0.567 2.246,0.523 2.25,0.488 2.254,0.446 2.258,0.406 2.257,0.371 2.258,0.328 2.254,0.289 2.25,0.246 2.246,0.207 2.242,0.168 2.231,0.129 2.222,0.086 2.211,0.043 2.204,0.004 2.183,-0.035 2.172,-0.078 2.156,-0.118 2.137,-0.16 2.117,-0.199 2.102,-0.238 2.074,-0.281 2.055,-0.321 2.027,-0.359 2.004,-0.402 1.976,-0.438 1.95,-0.48 1.918,-0.516 1.89,-0.555 1.856,-0.594 1.824,-0.632 1.789,-0.668 1.754,-0.707 1.719,-0.743 1.679,-0.777 1.645,-0.816 1.601,-0.848 1.559,-0.883 1.524,-0.918 1.476,-0.953 1.434,-0.98 1.386,-1.016 1.348,-1.047 1.297,-1.078 1.25,-1.109 1.203,-1.137 1.152,-1.164 1.106,-1.195 1.055,-1.223 1.003,-1.246 0.954,-1.274 0.902,-1.296 0.848,-1.321 0.796,-1.347 0.743,-1.368 0.687,-1.386 0.633,-1.411 0.578,-1.429 0.523,-1.445 0.469,-1.465 0.41,-1.481 0.356,-1.5 0.301,-1.512 0.242,-1.527 0.187,-1.539 0.129,-1.551 0.071,-1.562 0.015,-1.574 -0.039,-1.582 -0.098,-1.59 -0.156,-1.598 -0.215,-1.602 -0.265,-1.609 -0.328,-1.609 -0.379,-1.617 -0.438,-1.618 -0.496,-1.617 -0.547,-1.617 -0.605,-1.617 -0.656,-1.613 -0.715,-1.61 -0.766,-1.605 -0.82,-1.602 -0.871,-1.598 -0.926,-1.585 -0.977,-1.579 -1.027,-1.57 -1.078,-1.562 -1.129,-1.547 -1.176,-1.535 -1.226,-1.524 -1.274,-1.508 -1.316,-1.492 -1.367,-1.48 -1.411,-1.457 -1.453,-1.442 -1.496,-1.426 -1.539,-1.402 -1.582,-1.383 -1.617,-1.359 -1.66,-1.34 -1.699,-1.312 -1.735,-1.29 -1.769,-1.265 -1.809,-1.242 -1.836,-1.211 -1.871,-1.188 -1.906,-1.156 -1.93,-1.129 -1.965,-1.101 -1.988,-1.067 -2.016,-1.039 -2.039,-1.004 -2.066,-0.976 -2.086,-0.942 -2.106,-0.906 -2.128,-0.871 -2.145,-0.84 -2.164,-0.805 -2.18,-0.769 -2.191,-0.731 -2.207,-0.695 -2.215,-0.656 -2.227,-0.621 -2.238,-0.582 -2.242,-0.547 -2.246,-0.504 -2.254,-0.469 -2.258,-0.426 -2.258,-0.39 -2.258,-0.348 -2.253,-0.309 -2.254,-0.265 -2.25,-0.231 -2.243,-0.187 -2.234,-0.145 -2.23,-0.105 -2.215,-0.067 -2.207,-0.027 -2.192,0.02 -2.179,0.054 -2.164,0.098 -2.149,0.141 -2.125,0.179 -2.109,0.219 -2.09,0.258 -2.063,0.301 -2.043,0.339 -2.015,0.383 -1.992,0.418 -1.961,0.457 -1.934,0.5 -1.906,0.535 -1.871,0.575 -1.84,0.613 -1.809,0.652 -1.769,0.688 -1.738,0.722 -1.7,0.762 -1.66,0.797 -1.621,0.832 -1.582,0.863 -1.543,0.903 -1.5,0.933 -1.453,0.969 -1.414,1 -1.363,1.031 -1.325,1.063 -1.273,1.09 -1.227,1.125 -1.179,1.152 -1.129,1.18 -1.078,1.207 -1.032,1.234 -0.98,1.258 -0.926,1.289 -0.875,1.308 -0.82,1.333 -0.77,1.355 -0.715,1.379 -0.66,1.398 -0.605,1.418 -0.555,1.442 -0.492,1.453 -0.441,1.476 -0.383,1.489 -0.328,1.504 -0.27,1.523 -0.215,1.531 -0.16,1.547 z"
         style="fill:#0090a4;fill-opacity:0.101961;fill-rule:nonzero;stroke:none"
         id="path92" />
      <path
         d="m 146.352,255.465 -0.043,1.57 0.015,1.578 0.071,1.586 0.125,1.594 0.183,1.598 0.242,1.605 0.297,1.609 0.352,1.614 0.41,1.617 0.465,1.617 0.523,1.617 0.574,1.618 0.633,1.617 0.684,1.613 0.742,1.605 0.793,1.606 0.844,1.598 0.902,1.593 0.949,1.582 1.004,1.575 1.051,1.566 1.102,1.555 1.152,1.539 1.203,1.531 1.25,1.516 1.293,1.5 1.344,1.484 1.386,1.469 1.434,1.453 1.473,1.43 1.519,1.414 1.559,1.394 1.601,1.371 1.641,1.348 1.68,1.328 1.715,1.301 1.753,1.281 1.789,1.25 1.821,1.227 1.855,1.199 1.887,1.172 1.918,1.144 1.949,1.113 1.977,1.086 2,1.051 2.031,1.024 2.051,0.988 2.074,0.961 2.098,0.922 2.117,0.89 2.137,0.856 2.156,0.824 2.172,0.785 2.183,0.75 2.2,0.711 2.214,0.68 2.219,0.637 2.234,0.601 2.239,0.567 2.246,0.523 2.25,0.488 2.254,0.446 2.258,0.406 2.257,0.371 2.258,0.328 2.254,0.289 2.25,0.246 2.246,0.207 2.242,0.168 2.231,0.129 2.222,0.086 2.211,0.043 2.204,0.004 2.183,-0.035 2.172,-0.078 2.156,-0.118 2.137,-0.16 2.117,-0.199 2.102,-0.238 2.074,-0.281 2.055,-0.321 2.027,-0.359 2.004,-0.402 1.976,-0.438 1.95,-0.48 1.918,-0.516 1.89,-0.555 1.856,-0.594 1.824,-0.632 1.789,-0.668 1.754,-0.707 1.719,-0.743 1.679,-0.777 1.645,-0.816 1.601,-0.848 1.559,-0.883 1.524,-0.918 1.476,-0.953 1.434,-0.98 1.386,-1.016 1.348,-1.047 1.297,-1.078 1.25,-1.109 1.203,-1.137 1.152,-1.164 1.106,-1.195 1.055,-1.223 1.003,-1.246 0.954,-1.274 0.902,-1.296 0.848,-1.321 0.796,-1.347 0.743,-1.368 0.687,-1.386 0.633,-1.411 0.578,-1.429 0.523,-1.445 0.469,-1.465 0.41,-1.481 0.356,-1.5 0.301,-1.512 0.242,-1.527 0.187,-1.539 0.129,-1.551 0.071,-1.562 0.015,-1.574 -0.039,-1.582 -0.098,-1.59 -0.156,-1.598 -0.215,-1.602 -0.265,-1.609 -0.328,-1.609 -0.379,-1.617 -0.438,-1.618 -0.496,-1.617 -0.547,-1.617 -0.605,-1.617 -0.656,-1.613 -0.715,-1.61 -0.766,-1.605 -0.82,-1.602 -0.871,-1.598 -0.926,-1.585 -0.977,-1.579 -1.027,-1.57 -1.078,-1.562 -1.129,-1.547 -1.176,-1.535 -1.226,-1.524 -1.274,-1.508 -1.316,-1.492 -1.367,-1.48 -1.411,-1.457 -1.453,-1.442 -1.496,-1.426 -1.539,-1.402 -1.582,-1.383 -1.617,-1.359 -1.66,-1.34 -1.699,-1.312 -1.735,-1.29 -1.769,-1.265 -1.809,-1.242 -1.836,-1.211 -1.871,-1.188 -1.906,-1.156 -1.93,-1.129 -1.965,-1.101 -1.988,-1.067 -2.016,-1.039 -2.039,-1.004 -2.066,-0.976 -2.086,-0.942 -2.106,-0.906 -2.128,-0.871 -2.145,-0.84 -2.164,-0.805 -2.18,-0.769 -2.191,-0.731 -2.207,-0.695 -2.215,-0.656 -2.227,-0.621 -2.238,-0.582 -2.242,-0.547 -2.246,-0.504 -2.254,-0.469 -2.258,-0.426 -2.258,-0.39 -2.258,-0.348 -2.253,-0.309 -2.254,-0.265 -2.25,-0.231 -2.243,-0.187 -2.234,-0.145 -2.23,-0.105 -2.215,-0.067 -2.207,-0.027 -2.192,0.02 -2.179,0.054 -2.164,0.098 -2.149,0.141 -2.125,0.179 -2.109,0.219 -2.09,0.258 -2.063,0.301 -2.043,0.339 -2.015,0.383 -1.992,0.418 -1.961,0.457 -1.934,0.5 -1.906,0.535 -1.871,0.575 -1.84,0.613 -1.809,0.652 -1.769,0.688 -1.738,0.722 -1.7,0.762 -1.66,0.797 -1.621,0.832 -1.582,0.863 -1.543,0.903 -1.5,0.933 -1.453,0.969 -1.414,1 -1.363,1.031 -1.325,1.063 -1.273,1.09 -1.227,1.125 -1.179,1.152 -1.129,1.18 -1.078,1.207 -1.032,1.234 -0.98,1.258 -0.926,1.289 -0.875,1.308 -0.82,1.333 -0.77,1.355 -0.715,1.379 -0.66,1.398 -0.605,1.418 -0.555,1.442 -0.492,1.453 -0.441,1.476 -0.383,1.489 -0.328,1.504 -0.27,1.523 -0.215,1.531 -0.16,1.547 z"
         style="fill:none;stroke:#0090a4;stroke-width:0.75;stroke-linecap:round;stroke-linejoin:round;stroke-miterlimit:10;stroke-dasharray:none;stroke-opacity:1"
         id="path94" />
      <path
         d="m 302.605,328.777 -0.25,0.934 -0.218,0.965 -0.188,0.996 -0.156,1.035 -0.125,1.063 -0.098,1.097 -0.062,1.125 -0.035,1.156 v 1.188 l 0.027,1.215 0.059,1.246 0.089,1.269 0.122,1.297 0.152,1.321 0.18,1.347 0.214,1.371 0.243,1.395 0.273,1.418 0.305,1.437 0.332,1.457 0.363,1.477 0.391,1.496 0.422,1.512 0.453,1.527 0.476,1.547 0.508,1.559 0.535,1.57 0.563,1.586 0.59,1.597 0.617,1.606 0.644,1.617 0.672,1.625 0.695,1.633 0.719,1.641 0.746,1.644 0.77,1.649 0.793,1.652 0.816,1.652 0.84,1.656 0.863,1.653 0.883,1.656 0.906,1.652 0.926,1.649 0.945,1.644 0.965,1.641 0.985,1.633 1,1.625 1.019,1.621 1.035,1.605 1.051,1.598 1.07,1.59 1.082,1.574 1.098,1.559 1.11,1.547 1.121,1.531 1.136,1.515 1.145,1.5 1.156,1.477 1.168,1.461 1.176,1.441 1.183,1.418 1.192,1.399 1.199,1.375 1.203,1.351 1.211,1.325 1.215,1.3 1.219,1.274 1.222,1.246 1.223,1.223 1.223,1.191 1.226,1.16 1.227,1.129 1.223,1.102 1.222,1.07 1.223,1.035 1.215,1.004 1.214,0.973 1.208,0.933 1.203,0.903 1.195,0.867 1.191,0.828 1.18,0.793 1.172,0.758 1.164,0.718 1.152,0.684 1.145,0.644 1.129,0.602 1.121,0.566 1.105,0.528 1.094,0.488 1.074,0.445 1.063,0.407 1.047,0.363 1.031,0.324 1.016,0.285 0.996,0.242 0.976,0.2 0.957,0.16 0.942,0.117 0.918,0.078 0.898,0.035 0.875,-0.008 0.856,-0.05 0.832,-0.09 0.808,-0.133 0.785,-0.176 0.762,-0.215 0.738,-0.257 0.711,-0.297 0.688,-0.34 0.664,-0.379 0.633,-0.422 0.609,-0.461 0.582,-0.5 0.555,-0.539 0.523,-0.582 0.5,-0.617 0.469,-0.656 0.441,-0.696 0.41,-0.734 0.383,-0.77 0.356,-0.808 0.324,-0.84 0.293,-0.879 0.262,-0.914 0.234,-0.949 0.203,-0.985 0.172,-1.015 0.141,-1.047 0.109,-1.078 0.082,-1.113 0.047,-1.141 0.019,-1.172 -0.011,-1.203 -0.043,-1.231 -0.078,-1.253 -0.106,-1.286 -0.133,-1.308 -0.168,-1.336 -0.199,-1.36 -0.226,-1.382 -0.258,-1.407 -0.289,-1.425 -0.321,-1.45 -0.347,-1.464 -0.375,-1.489 -0.41,-1.504 -0.434,-1.519 -0.465,-1.535 -0.492,-1.555 -0.523,-1.566 -0.547,-1.579 -0.578,-1.589 -0.606,-1.602 -0.629,-1.613 -0.656,-1.621 -0.684,-1.629 -0.707,-1.637 -0.734,-1.641 -0.758,-1.648 -0.781,-1.648 -0.805,-1.653 -0.828,-1.656 -0.852,-1.656 -0.874,-1.653 -0.891,-1.652 -0.918,-1.652 -0.934,-1.649 -0.957,-1.64 -0.972,-1.637 -0.993,-1.629 -1.011,-1.625 -1.028,-1.613 -1.043,-1.602 -1.062,-1.594 -1.074,-1.582 -1.09,-1.566 -1.102,-1.555 -1.117,-1.539 -1.129,-1.523 -1.14,-1.508 -1.153,-1.488 -1.16,-1.469 -1.172,-1.449 -1.18,-1.43 -1.191,-1.41 -1.191,-1.387 -1.203,-1.359 -1.207,-1.34 -1.215,-1.313 -1.215,-1.289 -1.219,-1.261 -1.223,-1.231 -1.226,-1.207 -1.223,-1.176 -1.226,-1.148 -1.227,-1.113 -1.223,-1.086 -1.222,-1.055 -1.219,-1.02 -1.215,-0.984 -1.211,-0.953 -1.203,-0.922 -1.199,-0.883 -1.195,-0.847 -1.184,-0.813 -1.18,-0.777 -1.168,-0.738 -1.156,-0.7 -1.148,-0.664 -1.137,-0.621 -1.125,-0.586 -1.113,-0.547 -1.098,-0.507 -1.086,-0.465 -1.07,-0.426 -1.055,-0.387 -1.039,-0.344 -1.023,-0.304 -1.004,-0.262 -0.985,-0.223 -0.968,-0.179 -0.95,-0.141 -0.929,-0.094 -0.907,-0.058 -0.89,-0.012 -0.864,0.027 -0.843,0.071 -0.821,0.113 -0.796,0.152 -0.778,0.196 -0.75,0.238 -0.722,0.277 -0.7,0.317 -0.675,0.359 -0.649,0.402 -0.621,0.438 -0.594,0.484 -0.57,0.52 -0.539,0.558 -0.512,0.602 -0.484,0.637 -0.453,0.675 -0.43,0.715 -0.395,0.75 -0.367,0.789 -0.34,0.825 -0.308,0.863 z"
         style="fill:#3b6bcc;fill-opacity:0.101961;fill-rule:nonzero;stroke:none"
         id="path96" />
      <path
         d="m 302.605,328.777 -0.25,0.934 -0.218,0.965 -0.188,0.996 -0.156,1.035 -0.125,1.063 -0.098,1.097 -0.062,1.125 -0.035,1.156 v 1.188 l 0.027,1.215 0.059,1.246 0.089,1.269 0.122,1.297 0.152,1.321 0.18,1.347 0.214,1.371 0.243,1.395 0.273,1.418 0.305,1.437 0.332,1.457 0.363,1.477 0.391,1.496 0.422,1.512 0.453,1.527 0.476,1.547 0.508,1.559 0.535,1.57 0.563,1.586 0.59,1.597 0.617,1.606 0.644,1.617 0.672,1.625 0.695,1.633 0.719,1.641 0.746,1.644 0.77,1.649 0.793,1.652 0.816,1.652 0.84,1.656 0.863,1.653 0.883,1.656 0.906,1.652 0.926,1.649 0.945,1.644 0.965,1.641 0.985,1.633 1,1.625 1.019,1.621 1.035,1.605 1.051,1.598 1.07,1.59 1.082,1.574 1.098,1.559 1.11,1.547 1.121,1.531 1.136,1.515 1.145,1.5 1.156,1.477 1.168,1.461 1.176,1.441 1.183,1.418 1.192,1.399 1.199,1.375 1.203,1.351 1.211,1.325 1.215,1.3 1.219,1.274 1.222,1.246 1.223,1.223 1.223,1.191 1.226,1.16 1.227,1.129 1.223,1.102 1.222,1.07 1.223,1.035 1.215,1.004 1.214,0.973 1.208,0.933 1.203,0.903 1.195,0.867 1.191,0.828 1.18,0.793 1.172,0.758 1.164,0.718 1.152,0.684 1.145,0.644 1.129,0.602 1.121,0.566 1.105,0.528 1.094,0.488 1.074,0.445 1.063,0.407 1.047,0.363 1.031,0.324 1.016,0.285 0.996,0.242 0.976,0.2 0.957,0.16 0.942,0.117 0.918,0.078 0.898,0.035 0.875,-0.008 0.856,-0.05 0.832,-0.09 0.808,-0.133 0.785,-0.176 0.762,-0.215 0.738,-0.257 0.711,-0.297 0.688,-0.34 0.664,-0.379 0.633,-0.422 0.609,-0.461 0.582,-0.5 0.555,-0.539 0.523,-0.582 0.5,-0.617 0.469,-0.656 0.441,-0.696 0.41,-0.734 0.383,-0.77 0.356,-0.808 0.324,-0.84 0.293,-0.879 0.262,-0.914 0.234,-0.949 0.203,-0.985 0.172,-1.015 0.141,-1.047 0.109,-1.078 0.082,-1.113 0.047,-1.141 0.019,-1.172 -0.011,-1.203 -0.043,-1.231 -0.078,-1.253 -0.106,-1.286 -0.133,-1.308 -0.168,-1.336 -0.199,-1.36 -0.226,-1.382 -0.258,-1.407 -0.289,-1.425 -0.321,-1.45 -0.347,-1.464 -0.375,-1.489 -0.41,-1.504 -0.434,-1.519 -0.465,-1.535 -0.492,-1.555 -0.523,-1.566 -0.547,-1.579 -0.578,-1.589 -0.606,-1.602 -0.629,-1.613 -0.656,-1.621 -0.684,-1.629 -0.707,-1.637 -0.734,-1.641 -0.758,-1.648 -0.781,-1.648 -0.805,-1.653 -0.828,-1.656 -0.852,-1.656 -0.874,-1.653 -0.891,-1.652 -0.918,-1.652 -0.934,-1.649 -0.957,-1.64 -0.972,-1.637 -0.993,-1.629 -1.011,-1.625 -1.028,-1.613 -1.043,-1.602 -1.062,-1.594 -1.074,-1.582 -1.09,-1.566 -1.102,-1.555 -1.117,-1.539 -1.129,-1.523 -1.14,-1.508 -1.153,-1.488 -1.16,-1.469 -1.172,-1.449 -1.18,-1.43 -1.191,-1.41 -1.191,-1.387 -1.203,-1.359 -1.207,-1.34 -1.215,-1.313 -1.215,-1.289 -1.219,-1.261 -1.223,-1.231 -1.226,-1.207 -1.223,-1.176 -1.226,-1.148 -1.227,-1.113 -1.223,-1.086 -1.222,-1.055 -1.219,-1.02 -1.215,-0.984 -1.211,-0.953 -1.203,-0.922 -1.199,-0.883 -1.195,-0.847 -1.184,-0.813 -1.18,-0.777 -1.168,-0.738 -1.156,-0.7 -1.148,-0.664 -1.137,-0.621 -1.125,-0.586 -1.113,-0.547 -1.098,-0.507 -1.086,-0.465 -1.07,-0.426 -1.055,-0.387 -1.039,-0.344 -1.023,-0.304 -1.004,-0.262 -0.985,-0.223 -0.968,-0.179 -0.95,-0.141 -0.929,-0.094 -0.907,-0.058 -0.89,-0.012 -0.864,0.027 -0.843,0.071 -0.821,0.113 -0.796,0.152 -0.778,0.196 -0.75,0.238 -0.722,0.277 -0.7,0.317 -0.675,0.359 -0.649,0.402 -0.621,0.438 -0.594,0.484 -0.57,0.52 -0.539,0.558 -0.512,0.602 -0.484,0.637 -0.453,0.675 -0.43,0.715 -0.395,0.75 -0.367,0.789 -0.34,0.825 -0.308,0.863 z"
         style="fill:none;stroke:#3b6bcc;stroke-width:0.75;stroke-linecap:round;stroke-linejoin:round;stroke-miterlimit:10;stroke-dasharray:none;stroke-opacity:1"
         id="path98" />
      <path
         d="m 54.348,217.336 -0.145,0.637 -0.121,0.66 -0.094,0.687 -0.066,0.711 -0.043,0.739 -0.016,0.757 0.012,0.785 0.035,0.809 0.063,0.828 0.089,0.856 0.118,0.871 0.14,0.898 0.164,0.914 0.196,0.938 0.218,0.953 0.243,0.973 0.269,0.992 0.293,1.011 0.32,1.024 0.344,1.043 0.371,1.058 0.391,1.075 0.418,1.086 0.441,1.101 0.465,1.113 0.488,1.125 0.508,1.137 0.535,1.149 0.555,1.156 0.578,1.164 0.598,1.176 0.621,1.183 0.641,1.188 0.66,1.195 0.683,1.203 0.7,1.207 0.718,1.207 0.739,1.215 0.757,1.215 0.774,1.215 0.793,1.219 0.804,1.214 0.825,1.219 0.84,1.215 0.855,1.211 0.871,1.211 0.883,1.203 0.894,1.203 0.911,1.195 0.921,1.188 0.934,1.184 0.945,1.175 0.957,1.164 0.965,1.161 0.973,1.144 0.984,1.137 0.989,1.129 1,1.113 1.003,1.098 1.012,1.089 1.016,1.071 1.023,1.058 1.024,1.043 1.031,1.028 1.031,1.008 1.035,0.992 1.035,0.976 1.036,0.953 1.035,0.938 1.039,0.914 1.035,0.895 1.031,0.874 1.032,0.856 1.031,0.828 1.023,0.809 1.02,0.785 1.015,0.762 1.008,0.734 1.004,0.711 0.996,0.687 0.988,0.661 0.981,0.636 0.969,0.61 0.965,0.582 0.949,0.554 0.941,0.528 0.93,0.5 0.918,0.468 0.906,0.446 0.895,0.414 0.879,0.383 0.863,0.355 0.851,0.328 0.832,0.297 0.821,0.266 0.804,0.238 0.786,0.207 0.769,0.176 0.75,0.144 0.731,0.114 0.714,0.086 0.696,0.054 0.675,0.024 0.653,-0.008 0.637,-0.039 0.613,-0.07 0.59,-0.098 0.57,-0.129 0.551,-0.16 0.523,-0.192 0.504,-0.222 0.481,-0.25 0.457,-0.282 0.433,-0.312 0.41,-0.34 0.387,-0.371 0.359,-0.398 0.336,-0.43 0.313,-0.457 0.285,-0.485 0.262,-0.515 0.238,-0.539 0.207,-0.567 0.188,-0.597 0.156,-0.621 0.133,-0.649 0.109,-0.672 0.078,-0.699 0.055,-0.726 0.031,-0.747 v -0.773 l -0.023,-0.797 -0.047,-0.82 -0.078,-0.84 -0.102,-0.863 -0.129,-0.883 -0.152,-0.906 -0.18,-0.926 -0.207,-0.945 -0.23,-0.965 -0.258,-0.985 -0.281,-1 -0.305,-1.019 -0.332,-1.031 -0.36,-1.051 -0.378,-1.067 -0.407,-1.082 -0.429,-1.093 -0.45,-1.106 -0.476,-1.121 -0.5,-1.129 -0.524,-1.14 -0.543,-1.153 -0.566,-1.164 -0.59,-1.172 -0.609,-1.176 -0.629,-1.187 -0.652,-1.191 -0.672,-1.2 -0.692,-1.203 -0.707,-1.207 -0.73,-1.211 -0.746,-1.215 -0.766,-1.214 -0.785,-1.219 -0.801,-1.215 -0.812,-1.219 -0.832,-1.215 -0.848,-1.215 -0.863,-1.21 -0.875,-1.207 -0.891,-1.204 -0.902,-1.199 -0.918,-1.191 -0.926,-1.188 -0.941,-1.179 -0.95,-1.168 -0.961,-1.164 -0.968,-1.153 -0.977,-1.14 -0.988,-1.133 -0.996,-1.121 -1,-1.106 -1.008,-1.094 -1.016,-1.078 -1.019,-1.066 -1.024,-1.051 -1.027,-1.035 -1.031,-1.02 -1.032,-1 -1.035,-0.984 -1.035,-0.965 -1.039,-0.945 -1.035,-0.926 -1.035,-0.906 -1.035,-0.883 -1.032,-0.863 -1.031,-0.844 -1.027,-0.816 -1.02,-0.797 -1.019,-0.774 -1.012,-0.75 -1.008,-0.722 -1,-0.7 -0.992,-0.675 -0.984,-0.649 -0.973,-0.621 -0.969,-0.594 -0.957,-0.57 -0.945,-0.539 -0.938,-0.516 -0.922,-0.484 -0.914,-0.457 -0.898,-0.43 -0.887,-0.398 -0.871,-0.371 -0.855,-0.34 -0.844,-0.313 -0.828,-0.281 -0.809,-0.25 -0.797,-0.222 -0.777,-0.192 -0.758,-0.16 -0.742,-0.133 -0.723,-0.097 -0.703,-0.071 -0.687,-0.039 -0.664,-0.008 -0.645,0.024 -0.625,0.054 -0.601,0.082 -0.582,0.118 -0.559,0.144 -0.539,0.176 -0.516,0.207 -0.492,0.234 -0.469,0.266 -0.445,0.297 -0.422,0.328 -0.394,0.355 -0.375,0.383 -0.348,0.414 -0.324,0.446 -0.301,0.468 -0.273,0.5 -0.247,0.528 -0.222,0.554 -0.199,0.582 z"
         style="fill:#b318b1;fill-opacity:0.101961;fill-rule:nonzero;stroke:none"
         id="path100" />
      <path
         d="m 54.348,217.336 -0.145,0.637 -0.121,0.66 -0.094,0.687 -0.066,0.711 -0.043,0.739 -0.016,0.757 0.012,0.785 0.035,0.809 0.063,0.828 0.089,0.856 0.118,0.871 0.14,0.898 0.164,0.914 0.196,0.938 0.218,0.953 0.243,0.973 0.269,0.992 0.293,1.011 0.32,1.024 0.344,1.043 0.371,1.058 0.391,1.075 0.418,1.086 0.441,1.101 0.465,1.113 0.488,1.125 0.508,1.137 0.535,1.149 0.555,1.156 0.578,1.164 0.598,1.176 0.621,1.183 0.641,1.188 0.66,1.195 0.683,1.203 0.7,1.207 0.718,1.207 0.739,1.215 0.757,1.215 0.774,1.215 0.793,1.219 0.804,1.214 0.825,1.219 0.84,1.215 0.855,1.211 0.871,1.211 0.883,1.203 0.894,1.203 0.911,1.195 0.921,1.188 0.934,1.184 0.945,1.175 0.957,1.164 0.965,1.161 0.973,1.144 0.984,1.137 0.989,1.129 1,1.113 1.003,1.098 1.012,1.089 1.016,1.071 1.023,1.058 1.024,1.043 1.031,1.028 1.031,1.008 1.035,0.992 1.035,0.976 1.036,0.953 1.035,0.938 1.039,0.914 1.035,0.895 1.031,0.874 1.032,0.856 1.031,0.828 1.023,0.809 1.02,0.785 1.015,0.762 1.008,0.734 1.004,0.711 0.996,0.687 0.988,0.661 0.981,0.636 0.969,0.61 0.965,0.582 0.949,0.554 0.941,0.528 0.93,0.5 0.918,0.468 0.906,0.446 0.895,0.414 0.879,0.383 0.863,0.355 0.851,0.328 0.832,0.297 0.821,0.266 0.804,0.238 0.786,0.207 0.769,0.176 0.75,0.144 0.731,0.114 0.714,0.086 0.696,0.054 0.675,0.024 0.653,-0.008 0.637,-0.039 0.613,-0.07 0.59,-0.098 0.57,-0.129 0.551,-0.16 0.523,-0.192 0.504,-0.222 0.481,-0.25 0.457,-0.282 0.433,-0.312 0.41,-0.34 0.387,-0.371 0.359,-0.398 0.336,-0.43 0.313,-0.457 0.285,-0.485 0.262,-0.515 0.238,-0.539 0.207,-0.567 0.188,-0.597 0.156,-0.621 0.133,-0.649 0.109,-0.672 0.078,-0.699 0.055,-0.726 0.031,-0.747 v -0.773 l -0.023,-0.797 -0.047,-0.82 -0.078,-0.84 -0.102,-0.863 -0.129,-0.883 -0.152,-0.906 -0.18,-0.926 -0.207,-0.945 -0.23,-0.965 -0.258,-0.985 -0.281,-1 -0.305,-1.019 -0.332,-1.031 -0.36,-1.051 -0.378,-1.067 -0.407,-1.082 -0.429,-1.093 -0.45,-1.106 -0.476,-1.121 -0.5,-1.129 -0.524,-1.14 -0.543,-1.153 -0.566,-1.164 -0.59,-1.172 -0.609,-1.176 -0.629,-1.187 -0.652,-1.191 -0.672,-1.2 -0.692,-1.203 -0.707,-1.207 -0.73,-1.211 -0.746,-1.215 -0.766,-1.214 -0.785,-1.219 -0.801,-1.215 -0.812,-1.219 -0.832,-1.215 -0.848,-1.215 -0.863,-1.21 -0.875,-1.207 -0.891,-1.204 -0.902,-1.199 -0.918,-1.191 -0.926,-1.188 -0.941,-1.179 -0.95,-1.168 -0.961,-1.164 -0.968,-1.153 -0.977,-1.14 -0.988,-1.133 -0.996,-1.121 -1,-1.106 -1.008,-1.094 -1.016,-1.078 -1.019,-1.066 -1.024,-1.051 -1.027,-1.035 -1.031,-1.02 -1.032,-1 -1.035,-0.984 -1.035,-0.965 -1.039,-0.945 -1.035,-0.926 -1.035,-0.906 -1.035,-0.883 -1.032,-0.863 -1.031,-0.844 -1.027,-0.816 -1.02,-0.797 -1.019,-0.774 -1.012,-0.75 -1.008,-0.722 -1,-0.7 -0.992,-0.675 -0.984,-0.649 -0.973,-0.621 -0.969,-0.594 -0.957,-0.57 -0.945,-0.539 -0.938,-0.516 -0.922,-0.484 -0.914,-0.457 -0.898,-0.43 -0.887,-0.398 -0.871,-0.371 -0.855,-0.34 -0.844,-0.313 -0.828,-0.281 -0.809,-0.25 -0.797,-0.222 -0.777,-0.192 -0.758,-0.16 -0.742,-0.133 -0.723,-0.097 -0.703,-0.071 -0.687,-0.039 -0.664,-0.008 -0.645,0.024 -0.625,0.054 -0.601,0.082 -0.582,0.118 -0.559,0.144 -0.539,0.176 -0.516,0.207 -0.492,0.234 -0.469,0.266 -0.445,0.297 -0.422,0.328 -0.394,0.355 -0.375,0.383 -0.348,0.414 -0.324,0.446 -0.301,0.468 -0.273,0.5 -0.247,0.528 -0.222,0.554 -0.199,0.582 z"
         style="fill:none;stroke:#b318b1;stroke-width:0.75;stroke-linecap:round;stroke-linejoin:round;stroke-miterlimit:10;stroke-dasharray:none;stroke-opacity:1"
         id="path102" />
      <path
         d="M 343.441,363.484 Z"
         style="fill:none;stroke:#b61a51;stroke-width:0.75;stroke-linecap:round;stroke-linejoin:round;stroke-miterlimit:10;stroke-dasharray:none;stroke-opacity:1"
         id="path104" />
      <text
         xml:space="preserve"
         transform="translate(262.16797,392.14941)"
         style="font-variant:normal;font-weight:normal;font-size:18px;font-family:'Nimbus Sans';-inkscape-font-specification:NimbusSans-Regular;writing-mode:lr-tb;fill:#b78843;fill-opacity:1;fill-rule:nonzero;stroke:none"
         id="text110"><tspan
           x="0 10.008 16.002001"
           y="0"
           sodipodi:role="line"
           id="tspan106">er]</tspan><tspan
           x="-18.566406 -8.5584059 -2.5644059"
           y="-13.207032"
           sodipodi:role="line"
           id="tspan108">er]</tspan></text>
      <text
         xml:space="preserve"
         transform="translate(100.41016,241.28223)"
         style="font-variant:normal;font-weight:normal;font-size:18px;font-family:'Nimbus Sans';-inkscape-font-specification:NimbusSans-Regular;writing-mode:lr-tb;fill:#749300;fill-opacity:1;fill-rule:nonzero;stroke:none"
         id="text114"><tspan
           x="0 10.008 23.004"
           y="0"
           sodipodi:role="line"
           id="tspan112">eCi</tspan></text>
      <text
         xml:space="preserve"
         transform="translate(332.99219,369.42285)"
         style="font-variant:normal;font-weight:normal;font-size:18px;font-family:'Nimbus Sans';-inkscape-font-specification:NimbusSans-Regular;writing-mode:lr-tb;fill:#009860;fill-opacity:1;fill-rule:nonzero;stroke:none"
         id="text118"><tspan
           x="0 10.008 16.002001"
           y="0"
           sodipodi:role="line"
           id="tspan116">ar]</tspan></text>
      <text
         xml:space="preserve"
         transform="translate(173.77344,292.43066)"
         style="font-variant:normal;font-weight:normal;font-size:18px;font-family:'Nimbus Sans';-inkscape-font-specification:NimbusSans-Regular;writing-mode:lr-tb;fill:#0090a4;fill-opacity:1;fill-rule:nonzero;stroke:none"
         id="text122"><tspan
           x="0 10.008"
           y="0"
           sodipodi:role="line"
           id="tspan120">aC</tspan></text>
      <text
         xml:space="preserve"
         transform="translate(196.77744,292.43066)"
         style="font-variant:normal;font-weight:normal;font-size:18px;font-family:'Nimbus Sans';-inkscape-font-specification:NimbusSans-Regular;writing-mode:lr-tb;fill:#0090a4;fill-opacity:1;fill-rule:nonzero;stroke:none"
         id="text126"><tspan
           x="0"
           y="0"
           id="tspan124">ı</tspan></text>
      <text
         xml:space="preserve"
         transform="translate(357.88672,420.35644)"
         style="font-variant:normal;font-weight:normal;font-size:18px;font-family:'Nimbus Sans';-inkscape-font-specification:NimbusSans-Regular;writing-mode:lr-tb;fill:#3b6bcc;fill-opacity:1;fill-rule:nonzero;stroke:none"
         id="text132"><tspan
           x="0 10.008 23.004"
           y="0"
           sodipodi:role="line"
           id="tspan128">aC]</tspan><tspan
           x="3.289068 13.297068 26.293068"
           y="-16.820316"
           sodipodi:role="line"
           id="tspan130">aC]</tspan></text>
      <text
         xml:space="preserve"
         transform="translate(222.51562,300.06348)"
         style="font-variant:normal;font-weight:normal;font-size:18px;font-family:'Nimbus Sans';-inkscape-font-specification:NimbusSans-Regular;writing-mode:lr-tb;fill:#0090a4;fill-opacity:1;fill-rule:nonzero;stroke:none"
         id="text136"><tspan
           x="0 10.008"
           y="0"
           sodipodi:role="line"
           id="tspan134">aC</tspan></text>
      <text
         xml:space="preserve"
         transform="translate(245.51962,300.06348)"
         style="font-variant:normal;font-weight:normal;font-size:18px;font-family:'Nimbus Sans';-inkscape-font-specification:NimbusSans-Regular;writing-mode:lr-tb;fill:#0090a4;fill-opacity:1;fill-rule:nonzero;stroke:none"
         id="text140"><tspan
           x="0"
           y="0"
           id="tspan138">ı</tspan></text>
      <text
         xml:space="preserve"
         transform="translate(55.160156,136.37988)"
         style="font-variant:normal;font-weight:normal;font-size:18px;font-family:'Nimbus Sans';-inkscape-font-specification:NimbusSans-Regular;writing-mode:lr-tb;fill:#749300;fill-opacity:1;fill-rule:nonzero;stroke:none"
         id="text144"><tspan
           x="0 10.008 23.004"
           y="0"
           sodipodi:role="line"
           id="tspan142">eCi</tspan></text>
      <text
         xml:space="preserve"
         transform="translate(115.19141,285.85644)"
         style="font-variant:normal;font-weight:normal;font-size:18px;font-family:'Nimbus Sans';-inkscape-font-specification:NimbusSans-Regular;writing-mode:lr-tb;fill:#b318b1;fill-opacity:1;fill-rule:nonzero;stroke:none"
         id="text148"><tspan
           x="0 10.008 23.004"
           y="0"
           sodipodi:role="line"
           id="tspan146">eC]</tspan></text>
      <text
         xml:space="preserve"
         transform="translate(71.789062,207.75098)"
         style="font-variant:normal;font-weight:normal;font-size:18px;font-family:'Nimbus Sans';-inkscape-font-specification:NimbusSans-Regular;writing-mode:lr-tb;fill:#749300;fill-opacity:1;fill-rule:nonzero;stroke:none"
         id="text152"><tspan
           x="0 10.008 23.004"
           y="0"
           sodipodi:role="line"
           id="tspan150">eCi</tspan></text>
      <text
         xml:space="preserve"
         transform="translate(76.988281,270.31348)"
         style="font-variant:normal;font-weight:normal;font-size:18px;font-family:'Nimbus Sans';-inkscape-font-specification:NimbusSans-Regular;writing-mode:lr-tb;fill:#b318b1;fill-opacity:1;fill-rule:nonzero;stroke:none"
         id="text156"><tspan
           x="0 10.008 23.004"
           y="0"
           sodipodi:role="line"
           id="tspan154">eC]</tspan></text>
      <text
         xml:space="preserve"
         transform="translate(74.574219,218.08301)"
         style="font-variant:normal;font-weight:normal;font-size:18px;font-family:'Nimbus Sans';-inkscape-font-specification:NimbusSans-Regular;writing-mode:lr-tb;fill:#749300;fill-opacity:1;fill-rule:nonzero;stroke:none"
         id="text160"><tspan
           x="0 10.008 23.004"
           y="0"
           sodipodi:role="line"
           id="tspan158">eCi</tspan></text>
      <text
         xml:space="preserve"
         transform="translate(228.02344,313.07519)"
         style="font-variant:normal;font-weight:normal;font-size:18px;font-family:'Nimbus Sans';-inkscape-font-specification:NimbusSans-Regular;writing-mode:lr-tb;fill:#0090a4;fill-opacity:1;fill-rule:nonzero;stroke:none"
         id="text164"><tspan
           x="0 10.008"
           y="0"
           sodipodi:role="line"
           id="tspan162">aC</tspan></text>
      <text
         xml:space="preserve"
         transform="translate(251.02744,313.07519)"
         style="font-variant:normal;font-weight:normal;font-size:18px;font-family:'Nimbus Sans';-inkscape-font-specification:NimbusSans-Regular;writing-mode:lr-tb;fill:#0090a4;fill-opacity:1;fill-rule:nonzero;stroke:none"
         id="text168"><tspan
           x="0"
           y="0"
           id="tspan166">ı</tspan></text>
      <text
         xml:space="preserve"
         transform="translate(305.48437,284.27442)"
         style="font-variant:normal;font-weight:normal;font-size:18px;font-family:'Nimbus Sans';-inkscape-font-specification:NimbusSans-Regular;writing-mode:lr-tb;fill:#0090a4;fill-opacity:1;fill-rule:nonzero;stroke:none"
         id="text172"><tspan
           x="0 10.008"
           y="0"
           sodipodi:role="line"
           id="tspan170">aC</tspan></text>
      <text
         xml:space="preserve"
         transform="translate(328.48837,284.27442)"
         style="font-variant:normal;font-weight:normal;font-size:18px;font-family:'Nimbus Sans';-inkscape-font-specification:NimbusSans-Regular;writing-mode:lr-tb;fill:#0090a4;fill-opacity:1;fill-rule:nonzero;stroke:none"
         id="text176"><tspan
           x="0"
           y="0"
           id="tspan174">ı</tspan></text>
      <text
         xml:space="preserve"
         transform="translate(57.945312,222.36426)"
         style="font-variant:normal;font-weight:normal;font-size:18px;font-family:'Nimbus Sans';-inkscape-font-specification:NimbusSans-Regular;writing-mode:lr-tb;fill:#b318b1;fill-opacity:1;fill-rule:nonzero;stroke:none"
         id="text180"><tspan
           x="0 10.008 23.004"
           y="0"
           sodipodi:role="line"
           id="tspan178">eC]</tspan></text>
      <text
         xml:space="preserve"
         transform="translate(237.13672,394.79394)"
         style="font-variant:normal;font-weight:normal;font-size:18px;font-family:'Nimbus Sans';-inkscape-font-specification:NimbusSans-Regular;writing-mode:lr-tb;fill:#b78843;fill-opacity:1;fill-rule:nonzero;stroke:none"
         id="text184"><tspan
           x="0 10.008 16.002001"
           y="0"
           sodipodi:role="line"
           id="tspan182">er]</tspan></text>
      <text
         xml:space="preserve"
         transform="translate(62.578125,248.29785)"
         style="font-variant:normal;font-weight:normal;font-size:18px;font-family:'Nimbus Sans';-inkscape-font-specification:NimbusSans-Regular;writing-mode:lr-tb;fill:#b318b1;fill-opacity:1;fill-rule:nonzero;stroke:none"
         id="text188"><tspan
           x="0 10.008 23.004"
           y="0"
           sodipodi:role="line"
           id="tspan186">eC]</tspan></text>
      <text
         xml:space="preserve"
         transform="translate(56.253906,172.92285)"
         style="font-variant:normal;font-weight:normal;font-size:18px;font-family:'Nimbus Sans';-inkscape-font-specification:NimbusSans-Regular;writing-mode:lr-tb;fill:#749300;fill-opacity:1;fill-rule:nonzero;stroke:none"
         id="text192"><tspan
           x="0 10.008 23.004"
           y="0"
           sodipodi:role="line"
           id="tspan190">eCi</tspan></text>
      <text
         xml:space="preserve"
         transform="translate(326.44141,369.10644)"
         style="font-variant:normal;font-weight:normal;font-size:18px;font-family:'Nimbus Sans';-inkscape-font-specification:NimbusSans-Regular;writing-mode:lr-tb;fill:#b61a51;fill-opacity:1;fill-rule:nonzero;stroke:none"
         id="text196"><tspan
           x="0 10.008 21.996"
           y="0"
           sodipodi:role="line"
           id="tspan194">aCV</tspan></text>
      <text
         xml:space="preserve"
         transform="translate(343.92187,394.63769)"
         style="font-variant:normal;font-weight:normal;font-size:18px;font-family:'Nimbus Sans';-inkscape-font-specification:NimbusSans-Regular;writing-mode:lr-tb;fill:#3b6bcc;fill-opacity:1;fill-rule:nonzero;stroke:none"
         id="text200"><tspan
           x="0 10.008 23.004"
           y="0"
           sodipodi:role="line"
           id="tspan198">aC]</tspan></text>
      <text
         xml:space="preserve"
         transform="translate(80.980469,286.60644)"
         style="font-variant:normal;font-weight:normal;font-size:18px;font-family:'Nimbus Sans';-inkscape-font-specification:NimbusSans-Regular;writing-mode:lr-tb;fill:#b318b1;fill-opacity:1;fill-rule:nonzero;stroke:none"
         id="text204"><tspan
           x="0 10.008 23.004"
           y="0"
           sodipodi:role="line"
           id="tspan202">eC]</tspan></text>
      <text
         xml:space="preserve"
         transform="translate(265.74219,459.99707)"
         style="font-variant:normal;font-weight:normal;font-size:18px;font-family:'Nimbus Sans';-inkscape-font-specification:NimbusSans-Regular;writing-mode:lr-tb;fill:#b78843;fill-opacity:1;fill-rule:nonzero;stroke:none"
         id="text208"><tspan
           x="0 10.008 16.002001"
           y="0"
           sodipodi:role="line"
           id="tspan206">er]</tspan></text>
      <text
         xml:space="preserve"
         transform="translate(294.66406,339.52051)"
         style="font-variant:normal;font-weight:normal;font-size:18px;font-family:'Nimbus Sans';-inkscape-font-specification:NimbusSans-Regular;writing-mode:lr-tb;fill:#3b6bcc;fill-opacity:1;fill-rule:nonzero;stroke:none"
         id="text212"><tspan
           x="0 10.008 23.004"
           y="0"
           sodipodi:role="line"
           id="tspan210">aC]</tspan></text>
      <text
         xml:space="preserve"
         transform="translate(194.83594,246.39941)"
         style="font-variant:normal;font-weight:normal;font-size:18px;font-family:'Nimbus Sans';-inkscape-font-specification:NimbusSans-Regular;writing-mode:lr-tb;fill:#0090a4;fill-opacity:1;fill-rule:nonzero;stroke:none"
         id="text216"><tspan
           x="0 10.008"
           y="0"
           sodipodi:role="line"
           id="tspan214">aC</tspan></text>
      <text
         xml:space="preserve"
         transform="translate(217.83994,246.39941)"
         style="font-variant:normal;font-weight:normal;font-size:18px;font-family:'Nimbus Sans';-inkscape-font-specification:NimbusSans-Regular;writing-mode:lr-tb;fill:#0090a4;fill-opacity:1;fill-rule:nonzero;stroke:none"
         id="text220"><tspan
           x="0"
           y="0"
           id="tspan218">ı</tspan></text>
      <text
         xml:space="preserve"
         transform="translate(34.65625,212.77441)"
         style="font-variant:normal;font-weight:normal;font-size:18px;font-family:'Nimbus Sans';-inkscape-font-specification:NimbusSans-Regular;writing-mode:lr-tb;fill:#749300;fill-opacity:1;fill-rule:nonzero;stroke:none"
         id="text224"><tspan
           x="0 10.008 23.004"
           y="0"
           sodipodi:role="line"
           id="tspan222">eCi</tspan></text>
      <text
         xml:space="preserve"
         transform="translate(335.13672,353.48535)"
         style="font-variant:normal;font-weight:normal;font-size:18px;font-family:'Nimbus Sans';-inkscape-font-specification:NimbusSans-Regular;writing-mode:lr-tb;fill:#3b6bcc;fill-opacity:1;fill-rule:nonzero;stroke:none"
         id="text230"><tspan
           x="0 10.008 23.004"
           y="0"
           sodipodi:role="line"
           id="tspan226">aC]</tspan><tspan
           x="-11.699226 -1.691226 11.304774"
           y="60.546871"
           sodipodi:role="line"
           id="tspan228">aC]</tspan></text>
      <text
         xml:space="preserve"
         transform="translate(206.02734,229.63769)"
         style="font-variant:normal;font-weight:normal;font-size:18px;font-family:'Nimbus Sans';-inkscape-font-specification:NimbusSans-Regular;writing-mode:lr-tb;fill:#0090a4;fill-opacity:1;fill-rule:nonzero;stroke:none"
         id="text234"><tspan
           x="0 10.008"
           y="0"
           sodipodi:role="line"
           id="tspan232">aC</tspan></text>
      <text
         xml:space="preserve"
         transform="translate(229.03134,229.63769)"
         style="font-variant:normal;font-weight:normal;font-size:18px;font-family:'Nimbus Sans';-inkscape-font-specification:NimbusSans-Regular;writing-mode:lr-tb;fill:#0090a4;fill-opacity:1;fill-rule:nonzero;stroke:none"
         id="text238"><tspan
           x="0"
           y="0"
           id="tspan236">ı</tspan></text>
      <text
         xml:space="preserve"
         transform="translate(92.039062,264.17285)"
         style="font-variant:normal;font-weight:normal;font-size:18px;font-family:'Nimbus Sans';-inkscape-font-specification:NimbusSans-Regular;writing-mode:lr-tb;fill:#b318b1;fill-opacity:1;fill-rule:nonzero;stroke:none"
         id="text242"><tspan
           x="0 10.008 23.004"
           y="0"
           sodipodi:role="line"
           id="tspan240">eC]</tspan></text>
      <text
         xml:space="preserve"
         transform="translate(267.29687,372.61426)"
         style="font-variant:normal;font-weight:normal;font-size:18px;font-family:'Nimbus Sans';-inkscape-font-specification:NimbusSans-Regular;writing-mode:lr-tb;fill:#b78843;fill-opacity:1;fill-rule:nonzero;stroke:none"
         id="text246"><tspan
           x="0 10.008 16.002001"
           y="0"
           sodipodi:role="line"
           id="tspan244">er]</tspan></text>
      <path
         d="m 380.922,385.199 h 8.641 v 7.199 h -8.641 z"
         style="fill:#b78843;fill-opacity:0.101961;fill-rule:nonzero;stroke:none"
         id="path248" />
      <path
         d="m 380.922,385.199 h 8.641 v 7.199 h -8.641 z"
         style="fill:none;stroke:#b78843;stroke-width:0.75;stroke-linecap:round;stroke-linejoin:round;stroke-miterlimit:10;stroke-dasharray:none;stroke-opacity:1"
         id="path250" />
      <path
         d="m 380.922,399.602 h 8.641 v 7.199 h -8.641 z"
         style="fill:#749300;fill-opacity:0.101961;fill-rule:nonzero;stroke:none"
         id="path252" />
      <path
         d="m 380.922,399.602 h 8.641 v 7.199 h -8.641 z"
         style="fill:none;stroke:#749300;stroke-width:0.75;stroke-linecap:round;stroke-linejoin:round;stroke-miterlimit:10;stroke-dasharray:none;stroke-opacity:1"
         id="path254" />
      <path
         d="m 380.922,414 h 8.641 v 7.199 h -8.641 z"
         style="fill:#009860;fill-opacity:0.101961;fill-rule:nonzero;stroke:none"
         id="path256" />
      <path
         d="m 380.922,414 h 8.641 v 7.199 h -8.641 z"
         style="fill:none;stroke:#009860;stroke-width:0.75;stroke-linecap:round;stroke-linejoin:round;stroke-miterlimit:10;stroke-dasharray:none;stroke-opacity:1"
         id="path258" />
      <path
         d="m 380.922,428.398 h 8.641 v 7.199 h -8.641 z"
         style="fill:#0090a4;fill-opacity:0.101961;fill-rule:nonzero;stroke:none"
         id="path260" />
      <path
         d="m 380.922,428.398 h 8.641 v 7.199 h -8.641 z"
         style="fill:none;stroke:#0090a4;stroke-width:0.75;stroke-linecap:round;stroke-linejoin:round;stroke-miterlimit:10;stroke-dasharray:none;stroke-opacity:1"
         id="path262" />
      <path
         d="m 380.922,442.801 h 8.641 V 450 h -8.641 z"
         style="fill:#3b6bcc;fill-opacity:0.101961;fill-rule:nonzero;stroke:none"
         id="path264" />
      <path
         d="m 380.922,442.801 h 8.641 V 450 h -8.641 z"
         style="fill:none;stroke:#3b6bcc;stroke-width:0.75;stroke-linecap:round;stroke-linejoin:round;stroke-miterlimit:10;stroke-dasharray:none;stroke-opacity:1"
         id="path266" />
      <path
         d="m 380.922,457.199 h 8.641 v 7.199 h -8.641 z"
         style="fill:#b318b1;fill-opacity:0.101961;fill-rule:nonzero;stroke:none"
         id="path268" />
      <path
         d="m 380.922,457.199 h 8.641 v 7.199 h -8.641 z"
         style="fill:none;stroke:#b318b1;stroke-width:0.75;stroke-linecap:round;stroke-linejoin:round;stroke-miterlimit:10;stroke-dasharray:none;stroke-opacity:1"
         id="path270" />
      <path
         d="m 380.922,471.602 h 8.641 v 7.199 h -8.641 z"
         style="fill:#b61a51;fill-opacity:0.101961;fill-rule:nonzero;stroke:none"
         id="path272" />
      <path
         d="m 380.922,471.602 h 8.641 v 7.199 h -8.641 z"
         style="fill:none;stroke:#b61a51;stroke-width:0.75;stroke-linecap:round;stroke-linejoin:round;stroke-miterlimit:10;stroke-dasharray:none;stroke-opacity:1"
         id="path274" />
      <path
         d="m 382,388.801 h 10.801"
         style="fill:none;stroke:#b78843;stroke-width:0.75;stroke-linecap:round;stroke-linejoin:round;stroke-miterlimit:10;stroke-dasharray:none;stroke-opacity:1"
         id="path276" />
      <path
         d="m 382,403.199 h 10.801"
         style="fill:none;stroke:#749300;stroke-width:0.75;stroke-linecap:round;stroke-linejoin:round;stroke-miterlimit:10;stroke-dasharray:none;stroke-opacity:1"
         id="path278" />
      <path
         d="m 382,417.602 h 10.801"
         style="fill:none;stroke:#009860;stroke-width:0.75;stroke-linecap:round;stroke-linejoin:round;stroke-miterlimit:10;stroke-dasharray:none;stroke-opacity:1"
         id="path280" />
      <path
         d="m 382,432 h 10.801"
         style="fill:none;stroke:#0090a4;stroke-width:0.75;stroke-linecap:round;stroke-linejoin:round;stroke-miterlimit:10;stroke-dasharray:none;stroke-opacity:1"
         id="path282" />
      <path
         d="m 382,446.398 h 10.801"
         style="fill:none;stroke:#3b6bcc;stroke-width:0.75;stroke-linecap:round;stroke-linejoin:round;stroke-miterlimit:10;stroke-dasharray:none;stroke-opacity:1"
         id="path284" />
      <path
         d="m 382,460.801 h 10.801"
         style="fill:none;stroke:#b318b1;stroke-width:0.75;stroke-linecap:round;stroke-linejoin:round;stroke-miterlimit:10;stroke-dasharray:none;stroke-opacity:1"
         id="path286" />
      <path
         d="m 382,475.199 h 10.801"
         style="fill:none;stroke:#b61a51;stroke-width:0.75;stroke-linecap:round;stroke-linejoin:round;stroke-miterlimit:10;stroke-dasharray:none;stroke-opacity:1"
         id="path288" />
      <text
         xml:space="preserve"
         transform="translate(403.60156,393.04883)"
         style="font-variant:normal;font-weight:normal;font-size:12px;font-family:'Nimbus Sans';-inkscape-font-specification:NimbusSans-Regular;writing-mode:lr-tb;fill:#000000;fill-opacity:1;fill-rule:nonzero;stroke:none"
         id="text298"><tspan
           x="0 6.9959998 10.992"
           y="0"
           sodipodi:role="line"
           id="tspan290">er]</tspan><tspan
           x="0 6.9959998 15.996"
           y="14.39844"
           sodipodi:role="line"
           id="tspan292">eCi</tspan><tspan
           x="0 6.9959998 10.992"
           y="28.800779"
           sodipodi:role="line"
           id="tspan294">ar]</tspan><tspan
           x="0 6.9959998"
           y="43.199219"
           sodipodi:role="line"
           id="tspan296">aC</tspan></text>
      <text
         xml:space="preserve"
         transform="translate(419.59756,436.24805)"
         style="font-variant:normal;font-weight:normal;font-size:12px;font-family:'Nimbus Sans';-inkscape-font-specification:NimbusSans-Regular;writing-mode:lr-tb;fill:#000000;fill-opacity:1;fill-rule:nonzero;stroke:none"
         id="text302"><tspan
           x="0"
           y="0"
           id="tspan300">ı</tspan></text>
      <text
         xml:space="preserve"
         transform="translate(403.60156,450.64649)"
         style="font-variant:normal;font-weight:normal;font-size:12px;font-family:'Nimbus Sans';-inkscape-font-specification:NimbusSans-Regular;writing-mode:lr-tb;fill:#000000;fill-opacity:1;fill-rule:nonzero;stroke:none"
         id="text310"><tspan
           x="0 6.9959998 15.996"
           y="0"
           sodipodi:role="line"
           id="tspan304">aC]</tspan><tspan
           x="0 6.9959998 15.996"
           y="14.40234"
           sodipodi:role="line"
           id="tspan306">eC]</tspan><tspan
           x="0 6.9959998 15"
           y="28.800779"
           sodipodi:role="line"
           id="tspan308">aCV</tspan></text>
    </g>
  </g>
</svg>
